<svg width="200" height="200" viewBox="0 0 200 200" fill="none" xmlns="http://www.w3.org/2000/svg">
<g opacity="0.08">
<path d="M49.8405 180.605C38.1083 180.592 26.8603 175.926 18.5643 167.63C10.2684 159.334 5.60206 148.086 5.58918 136.354C5.58918 136.281 5.58918 136.205 5.58918 136.132C5.58918 135.986 5.57027 135.767 5.55405 135.478C4.64594 119.408 7.27297 76.0188 51.173 20.4215C51.5683 19.9221 52.1273 19.5785 52.7514 19.4511C53.3754 19.3237 54.0244 19.4208 54.5838 19.7252C55.1432 20.0297 55.5772 20.5219 55.8091 21.1151C56.041 21.7083 56.056 22.3643 55.8513 22.9674C55.727 23.335 43.7297 59.2728 51.927 92.1566C63.4728 92.6984 74.3484 97.7362 82.228 106.193C90.1076 114.649 94.3656 125.853 94.0917 137.408C93.8177 148.964 89.0334 159.953 80.7619 168.026C72.4903 176.1 61.3882 180.617 49.8297 180.611L49.8405 180.605ZM10.9946 136.508C11.0245 144.184 13.3282 151.68 17.6148 158.048C21.9013 164.416 27.9787 169.372 35.0794 172.289C42.1802 175.206 49.986 175.954 57.5114 174.438C65.0367 172.922 71.9443 169.21 77.3618 163.771C82.7794 158.333 86.4641 151.411 87.9508 143.88C89.4374 136.348 88.6594 128.546 85.7148 121.456C82.7703 114.367 77.7912 108.309 71.4064 104.047C65.0215 99.7852 57.5171 97.5107 49.8405 97.5107C49.2487 97.5105 48.6732 97.3161 48.2025 96.9572C47.7318 96.5983 47.392 96.0949 47.2351 95.5242C41.0189 72.9026 44.0676 49.1728 47.1568 34.7728C12.3351 83.5512 10.1486 120.784 10.9622 135.176C10.9989 135.619 11.0097 136.064 10.9946 136.508Z" fill="#5A48E0"/>
<path d="M150.343 180.605C138.611 180.592 127.363 175.926 119.067 167.63C110.771 159.334 106.105 148.086 106.092 136.354C106.092 136.281 106.092 136.205 106.092 136.132C106.092 135.986 106.073 135.767 106.057 135.478C105.149 119.408 107.776 76.0188 151.676 20.4215C152.071 19.9221 152.63 19.5785 153.254 19.4511C153.878 19.3237 154.527 19.4208 155.087 19.7252C155.646 20.0297 156.08 20.5219 156.312 21.1151C156.544 21.7083 156.559 22.3643 156.354 22.9674C156.23 23.335 144.232 59.2728 152.43 92.1566C163.976 92.6984 174.851 97.7362 182.731 106.193C190.61 114.649 194.868 125.853 194.594 137.408C194.32 148.964 189.536 159.953 181.265 168.026C172.993 176.1 161.891 180.617 150.332 180.611L150.343 180.605ZM111.497 136.508C111.527 144.184 113.831 151.68 118.117 158.048C122.404 164.416 128.481 169.372 135.582 172.289C142.683 175.206 150.489 175.954 158.014 174.438C165.539 172.922 172.447 169.21 177.865 163.771C183.282 158.333 186.967 151.411 188.453 143.88C189.94 136.348 189.162 128.546 186.218 121.456C183.273 114.367 178.294 108.309 171.909 104.047C165.524 99.7852 158.02 97.5107 150.343 97.5107C149.751 97.5105 149.176 97.3161 148.705 96.9572C148.235 96.5983 147.895 96.0949 147.738 95.5242C141.522 72.9026 144.57 49.1728 147.659 34.7728C112.838 83.5512 110.649 120.784 111.462 135.176C111.5 135.619 111.512 136.064 111.497 136.508Z" fill="#5A48E0"/>
</g>
</svg>
