<svg width="98" height="101" viewBox="0 0 98 101" fill="none" xmlns="http://www.w3.org/2000/svg">
<g opacity="0.58" clip-path="url(#clip0_183_4739)">
<path d="M49 0C57.8474 0 65.8655 3.59579 71.6609 9.4003C73.2398 10.9817 74.6511 12.7222 75.8684 14.604C74.5365 13.9149 73.1516 13.3407 71.7314 12.8989C71.1934 12.254 70.62 11.6355 70.029 11.0348C64.6483 5.64548 57.2123 2.3059 49 2.3059C40.7878 2.3059 33.3518 5.64548 27.971 11.0348C27.3712 11.6267 26.8067 12.254 26.2686 12.8989C24.8396 13.3318 23.4635 13.9149 22.1316 14.604C23.3489 12.7222 24.769 10.9817 26.3392 9.4003C32.1345 3.59579 40.1438 0 49 0ZM81.0463 32.8127C80.861 41.4002 77.3151 49.1484 71.6697 54.8027C67.6297 58.8491 62.5136 61.8264 56.78 63.2577C56.8771 62.4537 56.9212 61.6409 56.8947 60.8369C61.9402 59.4498 66.4389 56.764 70.0378 53.1682C74.8805 48.3179 78.0648 41.7978 78.6558 34.5443C79.2027 34.1821 79.732 33.811 80.2612 33.4223C80.5082 33.2279 80.7728 33.0247 81.0463 32.8127ZM42.3226 63.5139C36.148 62.2063 30.6349 59.1141 26.3303 54.8115C20.685 49.1572 17.139 41.4002 16.9449 32.8215C17.2184 33.0336 17.483 33.2368 17.7476 33.4311C18.268 33.8199 18.8061 34.1909 19.353 34.5532C19.944 41.8066 23.1195 48.3267 27.9622 53.1771C31.8081 57.0291 36.6949 59.8297 42.1726 61.1108C42.1638 61.9059 42.2167 62.7099 42.3226 63.5139Z" fill="#67647A"/>
<path d="M65.8391 14.5332C76.0007 14.5332 84.0895 24.3311 84.1071 24.3576L84.9627 25.3913L84.1071 26.4249C84.0807 26.4514 76.0007 36.2493 65.8391 36.2493C63.1575 36.2493 60.6259 35.569 58.3502 34.5707C58.606 33.5105 58.6765 32.362 58.6148 31.1693C60.7847 32.256 63.2369 33.0334 65.8303 33.0334C72.64 33.0334 78.5059 27.6883 80.7111 25.4001C78.5059 23.103 72.64 17.7668 65.8303 17.7668C60.5201 17.7668 55.7833 21.018 52.9165 23.5359C52.0697 22.7055 51.3464 21.9368 50.7201 21.2124C54.0015 18.3234 59.5145 14.5332 65.8391 14.5332Z" fill="#67647A"/>
<path d="M32.1609 14.5332C38.8031 14.5332 44.4925 18.5354 49.2029 22.8557C53.3487 26.6546 58.0767 32.1323 55.6686 35.1715C54.7071 36.3818 53.975 37.0621 53.1105 37.7071C52.6783 37.3448 52.2461 37.0091 51.858 36.6911C51.5669 36.4525 51.17 36.1345 50.7377 35.7722C51.8668 34.7032 52.546 34.1554 52.8195 33.0599C53.2164 31.4078 49.5293 27.5028 46.4243 24.6845C42.4637 21.0975 37.7181 17.7403 32.1609 17.7403C25.3512 17.7403 19.4942 23.0765 17.2801 25.3736C19.4853 27.6707 25.3512 33.0069 32.1609 33.0069C34.8866 33.0069 37.4623 32.1499 39.7204 30.9749C39.7116 31.9909 39.9145 33.0776 40.3291 34.235C37.8769 35.4012 35.1071 36.2228 32.1698 36.2228C21.9993 36.2228 13.9194 26.4249 13.8929 26.3984L13.0284 25.3648L13.8929 24.3311C13.9105 24.3311 21.9905 14.5332 32.1609 14.5332ZM48.3649 41.6032C46.2038 43.8915 45.3482 46.4889 48.1532 50.0759C50.0585 52.5143 52.2108 54.2989 53.481 57.0378C55.3863 61.146 53.9662 66.7119 51.4699 69.4596C52.202 66.5617 53.4987 65.104 52.6078 61.2873C50.8171 53.6893 40.2232 49.4221 43.4517 42.7429C43.928 41.7623 44.8895 40.7728 46.0274 39.7744C46.7595 40.3045 47.5887 40.9318 48.3649 41.6032Z" fill="#67647A"/>
<path d="M46.8477 54.9092C46.3714 55.563 45.9391 56.2609 45.5863 57.0384C43.6898 61.1466 45.1012 66.7126 47.5975 69.4602C46.8653 66.5624 45.5598 65.1046 46.4596 61.288C46.8301 59.7065 47.5887 58.2576 48.5237 56.9147C48.3208 56.6496 48.1003 56.3846 47.8886 56.1284C47.571 55.7308 47.2094 55.3244 46.8477 54.9092Z" fill="#67647A"/>
<path d="M45.1629 27.2207C43.0988 29.0849 41.8815 31.0904 42.3138 33.1401C42.7195 35.0572 44.8365 36.8772 46.0009 37.743C50.5878 41.1621 55.3775 44.3692 50.923 50.0765C50.8083 50.2179 50.7024 50.3504 50.5966 50.4829C51.1611 51.1367 51.7433 51.764 52.2902 52.4089C55.06 49.2902 57.3798 46.3747 55.6245 42.7524C54.0367 39.4658 46.9359 36.0556 46.0626 32.5305C45.7627 31.3024 46.6272 30.039 48.1356 28.811C47.1741 28.2279 46.1597 27.6978 45.1629 27.2207Z" fill="#67647A"/>
<path d="M32.1609 20.1699C32.7343 20.1699 33.2988 20.2671 33.8192 20.4438C33.4929 20.9474 33.2988 21.5482 33.2988 22.1931C33.2988 23.9777 34.7366 25.4178 36.5184 25.4178C36.8183 25.4178 37.1006 25.3825 37.3652 25.303C37.3652 25.3295 37.3652 25.356 37.3652 25.3913C37.3652 28.2715 35.0277 30.6039 32.1521 30.6039C29.2677 30.6039 26.939 28.2715 26.939 25.3913C26.9478 22.5023 29.2765 20.1699 32.1609 20.1699Z" fill="#67647A"/>
<path d="M65.8391 20.1699C66.4124 20.1699 66.977 20.2671 67.4974 20.4438C67.171 20.9474 66.977 21.5482 66.977 22.1931C66.977 23.9777 68.4148 25.4178 70.1966 25.4178C70.4877 25.4178 70.7788 25.3825 71.0434 25.303C71.0434 25.3295 71.0434 25.356 71.0434 25.3913C71.0434 28.2715 68.7059 30.6039 65.8303 30.6039C62.9458 30.6039 60.6171 28.2715 60.6171 25.3913C60.6259 22.5023 62.9635 20.1699 65.8391 20.1699Z" fill="#67647A"/>
<path d="M2.20522 76.2448H4.56922L7.55068 85.1857L10.541 76.2448H12.8961L15.0396 89.0642H12.6932L11.326 80.9715L8.618 89.0642H6.46571L3.76652 80.9715L2.37282 89.0642H0L2.20522 76.2448ZM20.5703 76.2448H27.5564V78.6391H22.9872V80.945H27.5564V83.3039H22.9872V86.67H27.5564V89.0642H20.5703V76.2448ZM33.3606 76.2448H36.245C38.1062 76.2448 39.4911 76.4745 40.3908 76.9428C41.2906 77.4022 42.0403 78.1531 42.6225 79.1957C43.2047 80.2382 43.4958 81.4485 43.4958 82.8356C43.4958 83.8251 43.337 84.7351 43.0106 85.5568C42.6842 86.3784 42.2344 87.0675 41.6522 87.6153C41.0788 88.163 40.4526 88.5429 39.7822 88.7461C39.1118 88.9582 37.9474 89.0554 36.2891 89.0554H33.3606V76.2448ZM35.7863 78.6037V86.6876H36.9154C38.0356 86.6876 38.8383 86.5639 39.3411 86.3077C39.8439 86.0515 40.2497 85.6186 40.5761 85.0178C40.8936 84.4171 41.0524 83.6749 41.0524 82.7826C41.0524 81.422 40.6731 80.3707 39.9145 79.6197C39.2353 78.9483 38.1327 78.6126 36.6155 78.6126L35.7863 78.6037ZM49.1764 76.2448H51.6022V89.0642H49.1764V76.2448ZM69.632 78.4977L67.9208 80.1233C66.7564 78.8953 65.4509 78.2857 64.0043 78.2857C62.7782 78.2857 61.7462 78.7009 60.9082 79.5402C60.0702 80.3707 59.6468 81.4044 59.6468 82.6324C59.6468 83.4894 59.832 84.2404 60.2113 84.903C60.5818 85.5656 61.1111 86.0869 61.7815 86.4668C62.4607 86.8467 63.2193 87.0322 64.0484 87.0322C64.7541 87.0322 65.4068 86.8997 65.989 86.6346C66.58 86.3696 67.2239 85.8925 67.9296 85.1945L69.5791 86.9262C68.6353 87.8538 67.7444 88.4988 66.8976 88.8522C66.0596 89.2144 65.0893 89.3911 64.0131 89.3911C62.0196 89.3911 60.3966 88.755 59.1264 87.4916C57.8562 86.2282 57.2299 84.6114 57.2299 82.6413C57.2299 81.3602 57.521 80.2293 58.0943 79.231C58.6677 78.2415 59.4969 77.4375 60.573 76.8367C61.6403 76.236 62.8047 75.9268 64.0484 75.9268C65.1069 75.9268 66.1213 76.1476 67.1005 76.5982C68.0796 77.0399 68.9264 77.6761 69.632 78.4977ZM79.2027 76.2448H81.6549L86.577 89.0642H84.0454L83.0486 86.4226H77.8002L76.777 89.0642H74.2454L79.2027 76.2448ZM80.4376 79.6551L78.6999 84.0725H82.1577L80.4376 79.6551ZM91.993 76.2448H94.4187V86.7406H98V89.0642H91.993V76.2448Z" fill="#67647A"/>
<path d="M11.4142 94.4187H12.5521L13.593 96.4331L14.6338 94.4187H15.7717L14.131 97.5993V100.029H13.0549V97.5993L11.4142 94.4187ZM21.6023 94.2773C22.3962 94.2773 23.0754 94.5689 23.6488 95.1432C24.2133 95.7174 24.4956 96.4154 24.4956 97.2459C24.4956 98.0675 24.2221 98.7566 23.6576 99.3221C23.0931 99.8875 22.4139 100.17 21.6112 100.17C20.7732 100.17 20.0675 99.8787 19.5118 99.2956C18.9561 98.7125 18.6738 98.0233 18.6738 97.2194C18.6738 96.6804 18.8061 96.1857 19.0619 95.7351C19.3177 95.2845 19.6794 94.9311 20.1292 94.6661C20.5968 94.4099 21.0819 94.2773 21.6023 94.2773ZM21.5847 95.3199C21.0731 95.3199 20.6409 95.5054 20.2792 95.8588C19.9264 96.221 19.7499 96.6804 19.7499 97.237C19.7499 97.8555 19.9705 98.3502 20.4115 98.7036C20.7555 98.9863 21.1525 99.1277 21.5935 99.1277C22.0963 99.1277 22.5285 98.9422 22.8814 98.5799C23.2342 98.2177 23.4106 97.7671 23.4106 97.2282C23.4106 96.6981 23.2342 96.2387 22.8725 95.8765C22.5373 95.5054 22.0963 95.3199 21.5847 95.3199ZM27.7858 94.4187H28.8619V98.0499C28.8619 98.3591 28.8884 98.5799 28.9413 98.7125C28.9942 98.845 29.0913 98.9422 29.2148 99.0217C29.3382 99.1012 29.4882 99.1365 29.6734 99.1365C29.8587 99.1365 30.0263 99.0924 30.1586 99.004C30.2909 98.9157 30.3879 98.8097 30.4409 98.6771C30.4938 98.5446 30.5202 98.2884 30.5202 97.9085V94.4099H31.5787V97.7583C31.5787 98.3237 31.5435 98.7125 31.4817 98.9333C31.42 99.1542 31.2965 99.3662 31.1201 99.5694C30.9436 99.7727 30.7319 99.9228 30.5026 100.02C30.2644 100.117 29.991 100.161 29.6823 100.161C29.2765 100.161 28.9237 100.073 28.6238 99.8787C28.3238 99.6931 28.1121 99.4634 27.9798 99.1807C27.8563 98.898 27.7858 98.4297 27.7858 97.7583V94.4187ZM35.2041 94.4187H36.342C36.9595 94.4187 37.4005 94.4717 37.6652 94.5866C37.9298 94.6926 38.1415 94.8781 38.3003 95.1432C38.459 95.3994 38.5384 95.6998 38.5384 96.0532C38.5384 96.4242 38.4502 96.7334 38.2738 96.9808C38.0974 97.2282 37.8328 97.4137 37.4799 97.5463L38.803 100.038H37.6387L36.3773 97.6611H36.2715V100.038H35.213V94.4187H35.2041ZM36.2715 96.6098H36.6155C36.9595 96.6098 37.1888 96.5656 37.3211 96.4772C37.4535 96.3889 37.5152 96.2387 37.5152 96.0267C37.5152 95.903 37.4799 95.797 37.4182 95.7086C37.3564 95.6203 37.2682 95.5496 37.1624 95.5142C37.0565 95.4701 36.8536 95.4524 36.5714 95.4524H36.2803V96.6098H36.2715ZM47.0947 95.1785L46.3008 95.8765C46.0274 95.4877 45.7451 95.2934 45.454 95.2934C45.3129 95.2934 45.1982 95.3287 45.11 95.4082C45.0218 95.4789 44.9777 95.5672 44.9777 95.6644C44.9777 95.7616 45.0129 95.85 45.0747 95.9295C45.1629 96.0443 45.4187 96.2829 45.8598 96.6539C46.2655 96.9985 46.5125 97.2105 46.6007 97.2989C46.8212 97.5198 46.9712 97.723 47.0594 97.9262C47.1476 98.1294 47.2005 98.3414 47.2005 98.5799C47.2005 99.0394 47.0418 99.4193 46.7242 99.7196C46.4066 100.02 45.9921 100.17 45.4805 100.17C45.0835 100.17 44.7307 100.073 44.4308 99.8787C44.1397 99.6843 43.8839 99.3751 43.6722 98.9598L44.5719 98.4209C44.8454 98.9157 45.1541 99.163 45.5069 99.163C45.6833 99.163 45.8421 99.11 45.9656 99.004C46.0891 98.898 46.1508 98.7743 46.1508 98.633C46.1508 98.5093 46.1067 98.3767 46.0097 98.253C45.9215 98.1294 45.7098 97.935 45.3834 97.6699C44.7748 97.1752 44.3778 96.7865 44.2014 96.5214C44.025 96.2475 43.9368 95.9825 43.9368 95.7174C43.9368 95.3287 44.0868 94.993 44.3778 94.7191C44.6778 94.4364 45.0394 94.3039 45.4805 94.3039C45.7539 94.3039 46.0273 94.3657 46.2743 94.4982C46.5301 94.5954 46.8036 94.8339 47.0947 95.1785ZM50.526 94.4187H51.5845V99.0128H53.1546V100.029H50.526V94.4187ZM58.9147 94.2773C59.7085 94.2773 60.3877 94.5689 60.9611 95.1432C61.5345 95.7174 61.8167 96.4154 61.8167 97.2459C61.8167 98.0675 61.5345 98.7566 60.9699 99.3221C60.4054 99.8875 59.7262 100.17 58.9235 100.17C58.0855 100.17 57.3798 99.8787 56.8329 99.2956C56.2772 98.7125 55.9949 98.0233 55.9949 97.2194C55.9949 96.6804 56.1184 96.1857 56.3831 95.7351C56.6389 95.2845 57.0005 94.9311 57.4504 94.6661C57.9091 94.4099 58.3942 94.2773 58.9147 94.2773ZM58.9058 95.3199C58.3854 95.3199 57.9532 95.5054 57.6003 95.8588C57.2563 96.221 57.0799 96.6804 57.0799 97.237C57.0799 97.8555 57.3004 98.3502 57.7415 98.7036C58.0855 98.9863 58.4824 99.1277 58.9235 99.1277C59.4263 99.1277 59.8585 98.9422 60.2113 98.5799C60.5642 98.2177 60.7406 97.7671 60.7406 97.2282C60.7406 96.6981 60.5642 96.2387 60.2025 95.8765C59.8497 95.5054 59.4086 95.3199 58.9058 95.3199ZM70.3201 95.3375L69.5703 96.0797C69.094 95.5761 68.5382 95.3287 67.912 95.3287C67.3651 95.3287 66.8976 95.5142 66.5271 95.8765C66.1566 96.2475 65.9625 96.6893 65.9625 97.2105C65.9625 97.7495 66.1566 98.2089 66.5447 98.5888C66.924 98.9687 67.4092 99.1542 67.9737 99.1542C68.3442 99.1542 68.6529 99.0747 68.8999 98.9245C69.1557 98.7655 69.3586 98.5269 69.5173 98.2H67.8943V97.184H70.7082L70.717 97.4226C70.717 97.9173 70.5847 98.3767 70.3377 98.8185C70.0819 99.2602 69.7555 99.596 69.3498 99.8257C68.944 100.055 68.4677 100.17 67.9296 100.17C67.3562 100.17 66.827 100.047 66.3771 99.7903C65.9184 99.5341 65.5568 99.1719 65.2922 98.7125C65.0275 98.2442 64.8952 97.7406 64.8952 97.2017C64.8952 96.4596 65.1422 95.8146 65.6273 95.2669C66.2095 94.6131 66.9681 94.2862 67.9031 94.2862C68.3883 94.2862 68.847 94.3745 69.2704 94.5601C69.6232 94.7014 69.976 94.9665 70.3201 95.3375ZM75.7184 94.4187H76.7858L78.9469 100.029H77.8443L77.4032 98.8715H75.1098L74.6599 100.029H73.5485L75.7184 94.4187ZM76.2565 95.903L75.4979 97.8378H77.0063L76.2565 95.903ZM82.0959 94.4187H83.1103L85.5184 98.1117V94.4187H86.5769V100.029H85.5625L83.1544 96.3447V100.029H82.0959V94.4187Z" fill="#67647A"/>
</g>
<defs>
<clipPath id="clip0_183_4739">
<rect width="98" height="100.17" fill="white"/>
</clipPath>
</defs>
</svg>
