<svg width="98" height="96" viewBox="0 0 98 96" fill="none" xmlns="http://www.w3.org/2000/svg">
<g opacity="0.58" clip-path="url(#clip0_183_4760)">
<path d="M42.5822 37.5922C38.5331 37.8308 35.2779 36.8413 32.7549 35.2598C29.4379 33.1836 27.409 30.0914 26.5356 27.4322C26.1739 26.3366 26.7738 25.1616 27.8589 24.7994L28 24.7552C30.6994 24.0661 34.3957 24.5873 38.0126 25.7094C42.1764 26.9904 46.3667 29.0931 48.7486 30.9838L49.0221 31.2046L49.3132 30.9661C51.748 29.0313 54.9591 27.3615 59.0082 26.0274C61.1519 25.3206 63.2073 24.8612 65.007 24.6315C66.9918 24.3841 68.7385 24.4195 70.0265 24.7552C71.138 25.0379 71.8173 26.1688 71.5262 27.2908L71.4732 27.4763C70.5911 30.118 68.5621 33.1836 65.2628 35.251C62.7398 36.8324 59.4846 37.8219 55.4354 37.5834C62.1134 34.6767 64.6894 30.8954 66.2243 28.6955L65.501 28.7751C63.9484 28.9694 62.1576 29.3758 60.2874 29.9943C56.7234 31.1605 53.9622 32.5917 51.9156 34.1996C52.4449 34.9064 52.9036 35.6397 53.2829 36.3907C54.3415 38.4669 54.8179 40.6667 54.7562 42.9373C54.6768 46.0295 53.5388 49.5016 51.6774 52.691C52.7272 54.0074 53.8475 55.1382 55.012 56.0835C57.2174 57.8593 59.5552 58.893 61.8929 58.9902C64.2218 59.0874 66.6478 58.2746 69.0473 56.3751C70.1412 55.5093 71.2439 54.3961 72.3378 53.0444C74.455 50.4204 76.1399 47.4342 77.2779 44.1918C78.3806 41.0732 78.9717 37.7071 78.9717 34.1996C78.9717 25.9126 75.6194 18.403 70.1941 12.9784C64.7688 7.54495 57.2792 4.18771 49.0044 4.18771C40.7297 4.18771 33.2313 7.54495 27.8148 12.9784C22.3894 18.4118 19.0372 25.9126 19.0372 34.1996C19.0372 38.5287 19.9458 42.6369 21.5866 46.3387C23.2892 50.1819 25.7769 53.6186 28.8469 56.4104C31.0611 58.4248 33.3195 59.3082 35.4808 59.3701C37.2451 59.4143 38.9918 58.9284 40.6415 58.0625C42.3617 57.1525 43.9761 55.845 45.3787 54.2901C45.8198 53.8041 46.2344 53.3006 46.6314 52.7793C45.5022 51.0388 44.6465 49.2895 44.0731 47.5491C43.0763 44.5099 42.9528 41.5061 43.7996 38.6701C44.2672 37.1063 45.0259 35.6132 46.0933 34.2085C44.0555 32.6094 40.4474 30.8159 36.7864 29.6939C35.0132 29.1461 33.2666 28.7662 31.7404 28.6514C32.7902 31.293 37.3069 35.4277 42.5822 37.5922ZM49.5867 38.2813C49.4102 37.9456 49.225 37.6099 49.0044 37.283C48.4575 38.1135 48.0517 38.9793 47.787 39.8539C47.1872 41.8506 47.3018 44.024 48.0252 46.2592C48.2987 47.072 48.6427 47.9025 49.0662 48.7329C50.0013 46.7186 50.5482 44.6778 50.6012 42.8313C50.6453 41.2498 50.3189 39.7126 49.5867 38.2813ZM49.2161 56.2161C48.9691 56.5164 48.7133 56.808 48.4575 57.0995C46.7461 58.9902 44.7524 60.607 42.5822 61.7555C40.3327 62.9305 37.9068 63.602 35.3926 63.5313C32.2609 63.4518 29.0763 62.2414 26.0592 59.5026C22.557 56.3132 19.7253 52.4082 17.7845 48.0173C15.9143 43.7854 14.8734 39.1118 14.8734 34.1996C14.8734 24.7552 18.6931 16.2119 24.8683 10.0275C31.0435 3.82548 39.5741 0 49.0044 0C58.4348 0 66.9654 3.82548 73.1405 10.0187C79.3157 16.2031 83.1355 24.7552 83.1355 34.1908C83.1355 38.1753 82.4562 42.0008 81.1947 45.5701C79.8979 49.2542 77.9748 52.6645 75.5753 55.6506C74.2962 57.2409 72.9729 58.5573 71.6144 59.6351C68.3857 62.1972 65.0334 63.2928 61.7341 63.1514C58.4436 63.01 55.2855 61.6583 52.4008 59.3259C51.3069 58.4336 50.2395 57.3911 49.2161 56.2161Z" fill="#67647A"/>
<path d="M49.0044 20.7002C51.0687 20.7002 52.7536 22.3788 52.7536 24.455C52.7536 26.5224 51.0775 28.201 49.0044 28.201C46.9314 28.201 45.2552 26.5224 45.2552 24.455C45.2552 22.3788 46.9314 20.7002 49.0044 20.7002Z" fill="#67647A"/>
<path d="M2.20542 71.1911H4.56963L7.55135 80.132L10.5419 71.1911H12.8973L15.041 84.0105H12.6944L11.327 75.9178L8.61878 84.0105H6.46629L3.76686 75.9178L2.37303 84.0105H0L2.20542 71.1911ZM20.5721 71.1911H27.5589V73.5854H22.9981V75.8913H27.5589V78.2502H22.9981V81.6251H27.5589V84.0193H20.5721V71.1911ZM33.3636 71.1911H36.2483C38.1096 71.1911 39.4946 71.4209 40.3945 71.8891C41.2943 72.3485 42.0441 73.0995 42.6263 74.142C43.2086 75.1756 43.4997 76.3949 43.4997 77.7819C43.4997 78.7714 43.3409 79.6726 43.0145 80.503C42.6881 81.3335 42.2294 82.0226 41.656 82.5704C41.0825 83.1181 40.4562 83.4892 39.7858 83.7012C39.1153 83.9133 37.9508 84.0105 36.2924 84.0105H33.3636V71.1911ZM35.7895 73.5412V81.6339H36.9187C38.0302 81.6339 38.8418 81.5102 39.3447 81.254C39.8475 80.9978 40.2533 80.5649 40.5709 79.9641C40.8885 79.3633 41.0561 78.6212 41.0561 77.7289C41.0561 76.3683 40.6767 75.317 39.9181 74.566C39.23 73.8946 38.1361 73.55 36.6188 73.55H35.7895V73.5412ZM49.1808 71.1911H51.6068V84.0105H49.1808V71.1911ZM69.6383 73.4352L67.9269 75.0608C66.7624 73.8328 65.4657 73.2232 64.0101 73.2232C62.7839 73.2232 61.7517 73.6472 60.9137 74.4777C60.0756 75.317 59.661 76.3418 59.661 77.5699C59.661 78.4269 59.8462 79.1866 60.2168 79.8404C60.5873 80.503 61.1166 81.0243 61.7958 81.4042C62.4751 81.7841 63.2338 81.9696 64.063 81.9696C64.7687 81.9696 65.4215 81.8371 66.0038 81.572C66.586 81.307 67.2388 80.8299 67.9357 80.132L69.5854 81.8636C68.6415 82.7912 67.7505 83.4362 66.9036 83.7896C66.0655 84.1518 65.0951 84.3285 64.0189 84.3285C62.034 84.3285 60.402 83.7012 59.1317 82.4379C57.8614 81.1745 57.235 79.5577 57.235 77.5787C57.235 76.2977 57.5261 75.1668 58.0996 74.1685C58.673 73.1701 59.5022 72.375 60.5784 71.7742C61.6547 71.1735 62.8103 70.8643 64.0542 70.8643C65.1128 70.8643 66.1273 71.0851 67.1065 71.5357C68.0857 71.9774 68.9326 72.6136 69.6383 73.4352ZM79.2187 71.1911H81.6711L86.5936 84.0105H84.0618L83.0649 81.3688H77.8248L76.8015 84.0105H74.2697L79.2187 71.1911ZM80.4449 74.5925L78.707 79.01H82.1739L80.4449 74.5925ZM92.0013 71.1911H94.4272V81.6869H98.0088V84.0105H92.0013V71.1911Z" fill="#67647A"/>
<path d="M11.4064 89.3552H12.5533L13.5854 91.3696L14.6263 89.3552H15.7643L14.1235 92.5358V94.9653H13.0561V92.5358L11.4064 89.3552ZM21.6043 89.2139C22.3982 89.2139 23.0775 89.5054 23.6509 90.0797C24.2243 90.6539 24.5066 91.3519 24.5066 92.1824C24.5066 93.004 24.2243 93.6931 23.6597 94.2585C23.0952 94.824 22.4159 95.1067 21.6131 95.1067C20.7751 95.1067 20.0693 94.8151 19.5224 94.232C18.9666 93.6489 18.6843 92.9598 18.6843 92.1559C18.6843 91.6169 18.8166 91.1222 19.0725 90.6716C19.3283 90.221 19.69 89.8676 20.1399 89.6026C20.5986 89.3464 21.0838 89.2139 21.6043 89.2139ZM21.5955 90.2652C21.075 90.2652 20.6427 90.4507 20.2899 90.8041C19.937 91.1664 19.7606 91.6258 19.7606 92.1824C19.7606 92.8008 19.9811 93.2955 20.4222 93.6489C20.7662 93.9316 21.1632 94.073 21.6043 94.073C22.1071 94.073 22.5394 93.8875 22.8923 93.5252C23.2451 93.163 23.4216 92.7036 23.4216 92.1735C23.4216 91.6434 23.2451 91.1929 22.8834 90.8218C22.5306 90.4507 22.0983 90.2652 21.5955 90.2652ZM27.7883 89.3552H28.8557V92.9863C28.8557 93.2955 28.8822 93.5164 28.9351 93.6489C28.988 93.7815 29.0851 93.8786 29.2086 93.9582C29.3321 94.0377 29.4909 94.073 29.6585 94.073C29.8437 94.073 30.0113 94.0288 30.1437 93.9405C30.2848 93.8521 30.373 93.7461 30.426 93.6136C30.4789 93.4811 30.5054 93.2249 30.5054 92.8538V89.3552H31.5816V92.7036C31.5816 93.269 31.5551 93.6578 31.4934 93.8786C31.4316 94.0995 31.3081 94.3115 31.1317 94.5147C30.9553 94.7179 30.7435 94.8681 30.5142 94.9653C30.2848 95.0625 30.0113 95.1155 29.7026 95.1155C29.2968 95.1155 28.9439 95.0183 28.644 94.8328C28.3441 94.6473 28.1323 94.4087 28 94.126C27.8677 93.8433 27.8059 93.3751 27.8059 92.7036V89.3552H27.7883ZM35.2073 89.3552H36.3453C36.9628 89.3552 37.4039 89.4082 37.6686 89.5231C37.9332 89.6291 38.1449 89.8146 38.3037 90.0708C38.4625 90.3271 38.5419 90.6363 38.5419 90.9808C38.5419 91.3431 38.4537 91.6611 38.2773 91.9085C38.1008 92.1559 37.8362 92.3414 37.4833 92.4739L38.8066 94.9653H37.6421L36.3806 92.5888H36.2747V94.9653H35.2161V89.3552H35.2073ZM36.2747 91.5551H36.61C36.954 91.5551 37.1834 91.5109 37.3157 91.4226C37.4392 91.3342 37.5098 91.184 37.5098 90.9808C37.5098 90.8571 37.4745 90.7511 37.4127 90.6628C37.351 90.5744 37.2628 90.5037 37.1569 90.4684C37.051 90.4242 36.8481 90.4066 36.5659 90.4066H36.2747V91.5551ZM47.0989 90.115L46.3138 90.813C46.0403 90.4242 45.758 90.2387 45.4669 90.2387C45.3258 90.2387 45.2111 90.274 45.1229 90.3536C45.0347 90.4331 44.9906 90.5126 44.9906 90.6098C44.9906 90.7069 45.0258 90.7953 45.0876 90.8748C45.1758 90.9897 45.4316 91.2282 45.8727 91.5904C46.2785 91.935 46.5255 92.147 46.6137 92.2354C46.8343 92.4562 46.9843 92.6594 47.0725 92.8626C47.1607 93.0658 47.2048 93.2779 47.2048 93.5164C47.2048 93.9758 47.046 94.3557 46.7284 94.6561C46.4108 94.9565 45.9962 95.1067 45.4846 95.1067C45.0876 95.1067 44.7347 95.0095 44.4436 94.8151C44.1437 94.6208 43.8878 94.3115 43.6849 93.8963L44.5848 93.3574C44.8494 93.8521 45.167 94.0995 45.5199 94.0995C45.7051 94.0995 45.8551 94.0465 45.9874 93.9405C46.1109 93.8345 46.1727 93.7108 46.1727 93.5694C46.1727 93.4457 46.1285 93.3132 46.0315 93.1895C45.9433 93.0658 45.7316 92.8715 45.414 92.6064C44.7965 92.1117 44.4083 91.7229 44.2319 91.4579C44.0555 91.184 43.9672 90.919 43.9672 90.6451C43.9672 90.2564 44.1172 89.9207 44.4083 89.6468C44.6994 89.3641 45.07 89.2315 45.5022 89.2315C45.7757 89.2315 46.0492 89.2934 46.2962 89.4259C46.5343 89.5408 46.8078 89.7705 47.0989 90.115ZM50.5217 89.3552H51.5803V93.9493H53.1506V94.9653H50.5217V89.3552ZM58.92 89.2139C59.7139 89.2139 60.3932 89.5054 60.9666 90.0797C61.54 90.6539 61.8223 91.3519 61.8223 92.1824C61.8223 93.004 61.54 93.6931 60.9754 94.2585C60.4108 94.824 59.7316 95.1067 58.9288 95.1067C58.0907 95.1067 57.385 94.8151 56.8292 94.232C56.2735 93.6489 55.9912 92.9598 55.9912 92.1559C55.9912 91.6169 56.1235 91.1222 56.3793 90.6716C56.6352 90.221 56.9969 89.8676 57.4468 89.6026C57.9143 89.3464 58.3995 89.2139 58.92 89.2139ZM58.9023 90.2652C58.3819 90.2652 57.9496 90.4507 57.5967 90.8041C57.2439 91.1664 57.0674 91.6258 57.0674 92.1824C57.0674 92.8008 57.288 93.2955 57.7379 93.6489C58.0819 93.9316 58.4789 94.073 58.92 94.073C59.4228 94.073 59.8463 93.8875 60.2079 93.5252C60.5608 93.163 60.7372 92.7036 60.7372 92.1735C60.7372 91.6434 60.5608 91.1929 60.1991 90.8218C59.8463 90.4507 59.414 90.2652 58.9023 90.2652ZM70.3264 90.274L69.5766 91.0162C69.1002 90.5126 68.5444 90.2652 67.9181 90.2652C67.3711 90.2652 66.9036 90.4507 66.5331 90.813C66.1626 91.184 65.9773 91.6258 65.9773 92.147C65.9773 92.6859 66.1714 93.1453 66.5596 93.5252C66.9477 93.9051 67.4241 94.0907 67.9887 94.0907C68.3592 94.0907 68.6679 94.0112 68.9238 93.861C69.1796 93.7019 69.3737 93.4634 69.5325 93.1277H67.9093V92.1294H70.7234L70.7322 92.3679C70.7322 92.8538 70.5999 93.3221 70.3529 93.7638C70.097 94.2055 69.7706 94.5412 69.3648 94.7709C68.959 95.0007 68.4915 95.1155 67.9446 95.1155C67.3623 95.1155 66.8418 94.9918 66.3919 94.7356C65.9332 94.4794 65.5715 94.1172 65.3069 93.6578C65.0422 93.1895 64.9099 92.6859 64.9099 92.147C64.9099 91.4049 65.1569 90.76 65.6421 90.2122C66.2243 89.5584 66.983 89.2315 67.9181 89.2315C68.4033 89.2315 68.862 89.3199 69.2855 89.5054C69.6295 89.6379 69.9824 89.903 70.3264 90.274ZM75.7253 89.3552H76.8015L78.954 94.9653H77.8513L77.419 93.808H75.1254L74.6755 94.9653H73.564L75.7253 89.3552ZM76.2634 90.8483L75.5047 92.7831H77.0221L76.2634 90.8483ZM82.1033 89.3552H83.1178L85.5262 93.0482V89.3552H86.5936V94.9653H85.5703L83.1619 91.2812V94.9653H82.1033V89.3552Z" fill="#67647A"/>
</g>
<defs>
<clipPath id="clip0_183_4760">
<rect width="98" height="95.107" fill="white"/>
</clipPath>
</defs>
</svg>
