<svg width="98" height="98" viewBox="0 0 98 98" fill="none" xmlns="http://www.w3.org/2000/svg">
<g opacity="0.58" clip-path="url(#clip0_183_4731)">
<path d="M23.1834 12.7313C28.4852 5.54185 36.2659 1.17181 44.523 0C37.2981 1.53304 30.6112 5.71806 26.0769 12.2643C25.9269 12.4758 25.7946 12.6784 25.6534 12.8987C24.8507 12.8634 24.0126 12.8106 23.1834 12.7313ZM21.0132 33.2775C22.0895 41.3568 26.4474 48.9692 33.69 53.9736C36.9099 56.1938 40.4121 57.7093 44.0114 58.5374C43.782 60 44.4789 61.2511 45.4758 62.3172C45.2729 62.7401 45.1229 63.1894 45.0523 63.6564C40.0769 63.0396 35.1809 61.2423 30.77 58.2026C20.9691 51.4273 16.0996 40.1938 17.017 29.1278L21.0132 33.2775ZM53.6887 59.1542C62.1576 58.326 70.2294 53.9207 75.443 46.3789C79.1746 40.9956 80.8948 34.8282 80.7713 28.7489L81.0271 28.4758C81.7946 35.8326 80.0391 43.489 75.4959 50.0529C69.9912 58.0088 61.5224 62.7048 52.6037 63.7004C52.5331 63.2247 52.392 62.7577 52.1891 62.3172C53.0889 61.533 53.6623 60.3612 53.6887 59.1542Z" fill="#67647A"/>
<path d="M26.959 12.8723C36.0542 -0.255491 54.0857 -3.54183 67.23 5.54186C70.0794 7.51543 72.4701 9.9031 74.3667 12.5727C72.2407 12.7842 70.097 12.8194 68.4827 12.8546L68.0239 12.8634C66.8948 11.7445 65.6597 10.7049 64.31 9.77094C60.005 6.78416 55.1355 5.24231 50.2659 5.03966C49.816 4.93394 49.3396 4.88107 48.8544 4.88107C48.3075 4.88107 47.7782 4.95156 47.2665 5.0749C40.8885 5.51543 34.7045 8.22909 30.029 12.9868L29.288 12.978C28.5911 12.9692 27.7795 12.9604 26.9149 12.9339L26.959 12.8723ZM79.7038 29.8502C79.6068 35.3568 77.9395 40.8987 74.5696 45.7709C69.5324 53.0485 61.7517 57.2952 53.574 58.0969L53.5652 58.0705C60.4285 56.9075 66.8242 53.0925 71.0939 46.9339C73.8551 42.9516 75.3812 38.4758 75.7517 33.9736L75.787 33.9383L79.7038 29.8502Z" fill="#67647A"/>
<path d="M49.5161 31.3837C50.8305 31.8771 52.2773 32.3 53.5211 32.8727C53.6976 32.952 53.874 33.0401 54.0328 33.1282C53.7858 33.2163 53.5211 33.2956 53.2565 33.3749C52.4184 33.6128 51.4921 33.789 50.5306 33.9388C48.0076 34.3793 44.0114 34.4498 42.4146 36.8815C42.1412 37.3044 42.0088 38.0886 42.2294 38.6348C42.4499 39.1987 42.7499 39.5159 43.0233 39.7714C43.5438 40.1943 44.0378 40.4938 44.5407 40.7405C45.4052 40.2736 46.6402 39.9212 47.9017 39.5687C47.6282 39.4806 47.3548 39.4013 47.0989 39.3044C46.1462 38.9608 45.1405 38.5115 44.62 38.0357C44.6024 38.0269 44.5848 38.0181 44.5671 38.0005C46.4814 36.4586 52.4272 36.5555 55.4442 35.3749C57.6761 34.5027 57.932 32.5467 55.9206 31.1546C55.1531 30.626 54.2004 30.2031 53.4329 29.9035C52.1273 30.441 50.7864 30.9256 49.5161 31.3837ZM49.9219 42.4762C50.3365 42.5908 50.7423 42.7053 51.1393 42.8286C51.4216 42.8991 51.6774 43.0137 51.8274 43.0753C51.0511 44.2648 44.4171 46.0004 44.1613 48.3529C44.0378 49.4982 45.6875 50.6789 46.6667 51.2516C47.2224 50.9256 47.8488 50.6172 48.4398 50.3176C47.7959 49.9564 45.661 48.7229 46.2785 48.2031C46.6579 47.8859 47.6724 47.3837 48.4222 47.0577C50.2306 46.2383 55.2502 44.7582 53.8122 42.0886C53.6182 41.7361 53.4064 41.4982 53.1859 41.3308C52.1714 41.8154 51.0511 42.1679 49.9219 42.4762ZM49.1191 62.7141C49.1897 62.7934 49.322 62.9256 49.3838 63.0049C50.6011 64.3881 49.8425 65.463 49.9925 65.4894C50.0189 65.5071 50.2659 65.3397 50.4335 64.8198C50.61 64.3088 50.4776 63.419 49.9219 62.6084C49.8778 62.5115 49.7543 62.3353 49.6661 62.2031C49.472 62.3881 49.2867 62.5555 49.1191 62.7141ZM49.419 52.6701C50.1689 53.0225 50.7776 53.4278 50.954 53.5335C51.0775 53.6128 50.4865 54.5115 49.8954 54.9168C48.731 55.9123 46.8784 56.9608 46.2697 58.3793C45.6787 59.7449 46.9578 60.8639 47.9282 61.6921C48.1134 61.4718 48.3075 61.2692 48.5016 61.0753C47.7429 60.441 47.1519 59.7185 47.2401 58.996C47.3636 57.93 49.8248 56.6877 50.7688 55.9652C51.1304 55.6833 51.501 55.3749 51.8362 54.952C52.7272 53.6304 52.7007 52.5027 51.2451 51.7097C50.6541 52.0533 50.0277 52.3617 49.419 52.6701ZM49.2514 57.5599C51.254 58.7229 50.3894 59.8154 49.3044 60.8727C48.3693 61.7802 46.7373 63.3573 47.2489 64.8286C47.4165 65.3485 47.6723 65.5159 47.69 65.4983C47.84 65.4718 47.0725 64.3881 48.2987 63.0137C48.8456 62.3264 49.7013 61.6745 50.707 60.7846C51.2187 60.3617 51.845 59.3749 51.4304 58.3793C51.1569 57.7361 50.7335 57.2868 50.2747 56.8903C49.9483 57.093 49.5955 57.322 49.2514 57.5599ZM49.4279 47.137C51.0422 47.8683 52.6566 48.256 50.46 49.5864C48.978 50.6172 45.8904 51.5864 45.3346 53.0401C44.823 54.3353 46.3932 55.5775 47.3371 56.256C47.69 55.9652 48.0693 55.6833 48.431 55.4101C47.9017 54.9784 46.4197 53.7273 46.7373 53.5247C48.5633 52.3793 51.4127 51.4718 52.7889 49.8683C54.1386 48.626 53.0624 46.8903 51.7921 46.1238C50.9628 46.5379 50.0895 46.8639 49.4279 47.137ZM33.54 21.2604C26.4915 18.7317 14.9439 22.626 12.6503 12.4234C15.879 18.3176 27.7442 17.2868 33.54 21.2604ZM62.9074 22.1414C65.6597 16.6789 80.3743 18.6172 84.2911 12.5996C84.9616 11.5687 85.9143 9.49825 86.029 7.57755C84.9969 9.61279 83.7354 11.648 81.7152 12.811C74.7108 16.8639 58.1525 13.1546 53.4153 17.1546C56.0177 16.441 58.9288 17.1018 60.9754 19.1458L61.0901 19.2604C61.1254 19.2956 61.1607 19.322 61.1872 19.3573L61.196 19.3661C61.2313 19.4013 61.2577 19.4278 61.2842 19.463L61.293 19.4718C61.3195 19.5071 61.3548 19.5335 61.3812 19.5687L61.3901 19.5775C61.4165 19.6128 61.4518 19.648 61.4783 19.6745L61.4871 19.6833C61.5136 19.7185 61.54 19.7538 61.5753 19.7802L61.5841 19.789C61.6106 19.8242 61.6371 19.8507 61.6635 19.8859L61.6812 19.9035C61.7076 19.9388 61.7341 19.9652 61.7517 20.0005L61.7694 20.0181C61.7959 20.0445 61.8135 20.0798 61.84 20.1062L61.8576 20.1238C61.8841 20.1502 61.9017 20.1855 61.9282 20.2207L61.9458 20.2472C61.9635 20.2736 61.9899 20.3088 62.0076 20.3353L62.034 20.3617C62.0517 20.3881 62.0693 20.4146 62.087 20.441L62.1134 20.4674C62.1311 20.4938 62.1487 20.5291 62.1664 20.5555L62.1928 20.5908C62.2105 20.6172 62.2193 20.6436 62.2369 20.6701L62.2634 20.7141C62.281 20.7405 62.2899 20.7582 62.3075 20.7846C62.3163 20.8022 62.3252 20.811 62.334 20.8375C62.3428 20.8551 62.3604 20.8815 62.3693 20.8991C62.3781 20.9168 62.3957 20.9432 62.4046 20.9608C62.4134 20.9784 62.431 20.996 62.4398 21.0225C62.4575 21.0489 62.4663 21.0665 62.4839 21.093L62.5016 21.1282C62.5192 21.1546 62.5281 21.1723 62.5369 21.1987C62.5457 21.2163 62.5545 21.2339 62.5633 21.2516C62.5722 21.278 62.5898 21.3044 62.6075 21.3309L62.6251 21.3573C62.6427 21.3925 62.6604 21.4278 62.678 21.4718L62.6868 21.4894C62.6957 21.5159 62.7133 21.5511 62.7221 21.5775L62.7486 21.6216C62.7662 21.648 62.7751 21.6833 62.7839 21.7097L62.7927 21.7273C62.8103 21.8859 62.8633 22.0181 62.9074 22.1414ZM34.7133 22.2119C32.0315 16.8815 17.9609 18.5996 13.6383 13.1018C12.9326 12.2031 11.9887 10.2207 11.9798 7.49825C12.6944 9.36609 14.3088 12.0709 16.1437 13.1018C23.0422 16.9608 39.5388 13.2956 44.2143 17.2339C41.603 16.5203 38.7007 17.1811 36.6541 19.2251L36.5394 19.3397C36.5041 19.3749 36.4776 19.4013 36.4424 19.4366L36.4335 19.4454C36.4071 19.4806 36.3718 19.5071 36.3365 19.5423C36.3012 19.5775 36.2747 19.6128 36.2483 19.6392L36.2395 19.648C36.213 19.6833 36.1777 19.7185 36.1512 19.7449L36.1424 19.7538C36.116 19.789 36.0895 19.8242 36.063 19.8507L36.0542 19.8595C36.0277 19.8947 36.0013 19.9212 35.9748 19.9564L35.9572 19.974C35.9307 20.0093 35.9042 20.0357 35.8866 20.0709L35.8689 20.0886C35.8425 20.115 35.8248 20.1502 35.7984 20.1767L35.7896 20.1943C35.7631 20.2295 35.7454 20.256 35.719 20.2912L35.7013 20.3176C35.6749 20.3441 35.6572 20.3793 35.6396 20.4057L35.6131 20.441C35.5955 20.4674 35.5778 20.4938 35.5602 20.5203L35.5425 20.5467C35.5249 20.5731 35.5073 20.6084 35.4808 20.6348L35.4543 20.6701C35.4367 20.6965 35.419 20.7229 35.4102 20.7494L35.3838 20.7934C35.3749 20.8198 35.3573 20.8375 35.3396 20.8639C35.3308 20.8815 35.322 20.8991 35.3132 20.9168C35.3044 20.9344 35.2867 20.9608 35.2779 20.9784C35.2691 20.996 35.2514 21.0225 35.2426 21.0401C35.2338 21.0577 35.225 21.0842 35.2073 21.1018C35.1985 21.1282 35.1809 21.1458 35.172 21.1723L35.1544 21.2163C35.1456 21.2427 35.1279 21.2604 35.1191 21.2868C35.1103 21.3044 35.1015 21.322 35.0926 21.3397C35.075 21.3661 35.0662 21.3925 35.0485 21.419L35.0309 21.4454C35.0132 21.4806 34.9956 21.5247 34.978 21.5599L34.9691 21.5775C34.9515 21.604 34.9427 21.6392 34.925 21.6657L34.8986 21.7097C34.8897 21.7361 34.8721 21.7714 34.8633 21.7978L34.8545 21.8154C34.8103 21.9564 34.7574 22.0886 34.7133 22.2119ZM14.0706 16.9872C17.5199 22.3529 28.3882 19.4542 34.0605 22.5027C27.3472 21.093 17.0082 26.7934 14.0706 16.9872ZM15.7643 21.1282C19.1607 25.9652 28.8116 21.5247 34.087 23.7449C27.9647 23.3044 18.9225 30.4586 15.7643 21.1282ZM17.6875 25.0753C21.0926 29.2692 29.2086 23.4101 34.1046 24.6701C28.5734 25.3397 21.2161 33.7714 17.6875 25.0753ZM20.431 29.2516C24.0567 32.0181 30.0555 24.9432 34.184 25.2427C29.6497 26.9696 25.0536 35.8859 20.431 29.2516ZM23.1304 32.4145C26.5268 34.115 30.6465 26.9256 34.2369 25.9564C30.7436 28.5379 27.8236 37.2868 23.1304 32.4145ZM64.0807 21.1899C71.1292 18.6612 82.6768 22.5555 84.9704 12.3529C81.7417 18.2472 69.8765 17.2163 64.0807 21.1899ZM83.5413 16.9168C80.092 22.2824 69.2237 19.3837 63.5514 22.4322C70.2647 21.0225 80.6125 26.7229 83.5413 16.9168ZM81.8564 21.0577C78.46 25.8947 68.8091 21.4542 63.5337 23.6657C69.656 23.2339 78.6894 30.3881 81.8564 21.0577ZM80.0832 24.9168C76.678 29.1106 68.4121 23.7802 63.5073 24.5996C69.0473 25.2692 76.2017 33.093 80.0832 24.9168ZM77.2426 28.8198C73.6169 31.9035 67.5564 24.8727 63.4367 25.1723C67.971 26.8991 72.8847 35.648 77.2426 28.8198ZM74.2432 32.4586C70.8469 34.159 66.9654 26.8463 63.3661 25.8771C66.8771 28.4674 69.5589 37.3397 74.2432 32.4586ZM48.8456 7.01367C51.1834 7.01367 53.0712 8.90794 53.0712 11.2339C53.0712 13.5687 51.1834 15.4542 48.8456 15.4542C46.5167 15.4542 44.62 13.5687 44.62 11.2339C44.62 8.89913 46.5079 7.01367 48.8456 7.01367ZM40.7385 24.3793C39.7152 23.6833 40.9855 22.9696 41.4795 22.7934C42.8204 22.3176 44.2848 21.8154 45.3875 20.8286C45.8022 20.4586 46.4638 19.3132 45.7933 18.8463C45.2993 18.5027 43.8526 18.8727 43.3056 18.952C42.5734 19.0577 41.6383 19.1546 41.0032 19.604C40.6238 19.8683 38.5684 20.6084 37.8185 22.5379C37.4392 23.5071 37.5803 24.8022 38.2773 25.6568C39.6623 27.2163 41.109 27.7802 42.6705 28.5467C42.9704 28.6789 43.3938 28.8727 43.932 29.1018C45.1935 28.6084 46.5255 28.1679 47.8576 27.7273C45.8992 26.9079 44.5054 26.2824 43.8261 25.9828C42.4235 25.3661 41.409 24.8375 40.7385 24.3793ZM56.6793 19.6128C56.0441 19.1635 55.109 19.0665 54.3768 18.9608C53.8299 18.8815 52.3831 18.5115 51.8891 18.8551C51.2187 19.322 51.8715 20.4586 52.2949 20.8375C53.3976 21.8242 54.862 22.3264 56.2029 22.8022C56.7057 22.9784 57.9761 23.6833 56.9528 24.3881C52.2773 27.5775 46.4197 28.1238 41.8059 30.9256C40.7914 31.5423 40.3856 32.115 40.3415 32.9256C40.2974 33.7185 40.6062 34.7494 42.2294 35.3837C42.4146 35.4542 42.6087 35.5247 42.7851 35.5864C43.7202 34.7582 45.0258 34.3264 46.3667 34.0445C45.6698 33.9035 44.373 33.3925 43.6408 33.1282C43.8085 33.0401 43.9761 32.952 44.1525 32.8727C48.2369 30.9696 56.5558 28.8727 59.3964 25.6657C60.1021 24.811 60.2344 23.5159 59.8551 22.5467C59.1141 20.6172 57.0586 19.8771 56.6793 19.6128ZM50.5306 36.9784C51.2098 37.1194 51.8538 37.3044 52.4449 37.5952C52.7095 37.7185 52.9742 37.9035 53.1065 38.0093C53.0889 38.0181 53.08 38.0357 53.0536 38.0445C51.0069 39.9035 44.92 40.159 43.8702 42.0886C42.9969 43.7009 44.6377 45.0225 45.9609 45.6216L46.0315 45.5952C46.7549 45.1899 47.5488 44.8198 48.2899 44.4674C47.9017 44.2912 47.5136 44.115 47.1342 43.93C46.6137 43.6833 46.2785 43.5247 46.0227 43.2604C45.9433 43.1899 45.8816 43.1282 45.8463 43.0665C45.9962 42.996 46.2521 42.8903 46.5344 42.8198C49.1015 42.0181 52.5331 41.5071 54.6415 39.7802C54.915 39.5159 55.2149 39.1987 55.4442 38.6436C55.6648 38.0974 55.5325 37.3044 55.259 36.8903C55.0826 36.626 54.9061 36.4145 54.7297 36.2471C53.4947 36.5643 51.995 36.767 50.5306 36.9784Z" fill="#67647A"/>
<path d="M2.20542 74.1502H4.56963L7.55135 83.0665L10.5419 74.1502H12.8973L15.041 86.9344H12.6944L11.327 78.8551L8.61878 86.9255H6.46629L3.77568 78.8551L2.38185 86.9255H0L2.20542 74.1502ZM20.5633 74.1502H27.5501V76.5379H22.9805V78.8374H27.5501V81.1899H22.9805V84.5555H27.5501V86.9432H20.5633V74.1502V74.1502ZM33.3636 74.1502H36.2483C38.1096 74.1502 39.4858 74.3793 40.3945 74.8374C41.2943 75.2956 42.0441 76.0445 42.6263 77.0841C43.2086 78.1238 43.4997 79.3308 43.4997 80.7141C43.4997 81.7009 43.3409 82.6084 43.0145 83.4277C42.6881 84.2559 42.2382 84.9344 41.656 85.4806C41.0825 86.0269 40.4562 86.3969 39.7858 86.6084C39.1153 86.8198 37.9508 86.9167 36.2924 86.9167H33.3636V74.1502ZM35.7895 76.4938V84.5643H36.9187C38.0302 84.5643 38.8418 84.4322 39.3359 84.1855C39.8387 83.9299 40.2533 83.4982 40.5621 82.8991C40.8796 82.2912 41.0384 81.5511 41.0384 80.67C41.0384 79.3132 40.6591 78.2647 39.9004 77.5158C39.2212 76.8462 38.1185 76.5114 36.61 76.5114L35.7895 76.4938ZM49.172 74.1502H51.6068V86.9344H49.1808V74.1502H49.172ZM69.6383 76.3881L67.9269 78.0092C66.7624 76.7846 65.4568 76.1766 64.0101 76.1766C62.7839 76.1766 61.7517 76.5907 60.9137 77.4277C60.0756 78.2559 59.6522 79.2868 59.6522 80.5114C59.6522 81.3661 59.8374 82.115 60.2168 82.7758C60.5873 83.4366 61.1166 83.9564 61.787 84.3352C62.4663 84.7141 63.2249 84.8991 64.0542 84.8991C64.7599 84.8991 65.4039 84.7669 65.995 84.5026C66.586 84.2383 67.23 83.7537 67.9269 83.0665L69.5854 84.7934C68.6415 85.7185 67.7505 86.3617 66.9036 86.7141C66.0655 87.0753 65.104 87.2515 64.0189 87.2515C62.0252 87.2515 60.3932 86.6172 59.1317 85.3573C57.8614 84.0973 57.235 82.485 57.235 80.5203C57.235 79.2427 57.5261 78.115 58.0996 77.1194C58.673 76.1238 59.5022 75.3308 60.5784 74.7317C61.6547 74.1326 62.8103 73.8242 64.0542 73.8242C65.1128 73.8242 66.1273 74.0445 67.1065 74.4938C68.0857 74.9432 68.9238 75.5775 69.6383 76.3881ZM79.2098 74.1502H81.6623L86.5847 86.9344H84.0441L83.0473 84.3H77.7984L76.775 86.9344H74.2344L79.2098 74.1502ZM80.4449 77.5423L78.707 81.9388H82.1651L80.4449 77.5423ZM92.0013 74.1502H94.4272V84.6172H98.0088V86.9344H92.0013V74.1502Z" fill="#67647A"/>
<path d="M11.4153 92.264H12.5532L13.5854 94.2728L14.6263 92.264H15.7643L14.1235 95.4358V97.8587H13.0561V95.4358L11.4153 92.264ZM21.6043 92.123C22.3982 92.123 23.0775 92.4138 23.6509 92.9865C24.2243 93.5592 24.5066 94.2552 24.5066 95.0834C24.5066 95.9028 24.2243 96.59 23.6597 97.1539C23.0952 97.7178 22.4159 97.9997 21.6131 97.9997C20.7751 97.9997 20.0781 97.709 19.5224 97.1275C18.9666 96.546 18.6843 95.8587 18.6843 95.057C18.6843 94.5283 18.8166 94.0349 19.0725 93.5856C19.3283 93.1363 19.69 92.7838 20.1399 92.5195C20.5986 92.2552 21.0838 92.123 21.6043 92.123ZM21.5866 93.1715C21.0662 93.1715 20.6339 93.3565 20.281 93.709C19.9282 94.0702 19.7517 94.5283 19.7517 95.0834C19.7517 95.7001 19.9723 96.1935 20.4134 96.546C20.7574 96.8279 21.1544 96.9689 21.5955 96.9689C22.0983 96.9689 22.5306 96.7839 22.8834 96.4226C23.2363 96.0614 23.4127 95.612 23.4127 95.0746C23.4127 94.5371 23.2363 94.0878 22.8746 93.7266C22.5306 93.3565 22.0983 93.1715 21.5866 93.1715ZM27.7883 92.264H28.8557V95.8852C28.8557 96.1935 28.8822 96.4138 28.9351 96.546C28.988 96.6781 29.0763 96.775 29.2086 96.8543C29.3321 96.9336 29.4909 96.9689 29.6585 96.9689C29.8437 96.9689 30.0114 96.9248 30.1437 96.8367C30.276 96.7486 30.373 96.6429 30.426 96.5107C30.4789 96.3786 30.5054 96.1231 30.5054 95.753V92.264H31.5816V95.6032C31.5816 96.1671 31.5463 96.5548 31.4846 96.775C31.4228 96.9953 31.2993 97.2068 31.1229 97.4094C30.9464 97.612 30.7347 97.7618 30.5054 97.8587C30.276 97.9557 30.0025 98.0085 29.6938 98.0085C29.288 98.0085 28.9351 97.9204 28.6352 97.7266C28.3352 97.5416 28.1147 97.3037 27.9912 97.0217C27.8589 96.7398 27.7971 96.2728 27.7971 95.6032V92.264H27.7883ZM35.2073 92.264H36.3453C36.9628 92.264 37.4039 92.3169 37.6686 92.4314C37.9332 92.5371 38.1449 92.7222 38.3037 92.9865C38.4625 93.242 38.5419 93.5415 38.5419 93.894C38.5419 94.264 38.4537 94.5724 38.2773 94.8191C38.1008 95.0658 37.8362 95.2508 37.4833 95.383L38.8066 97.8676H37.6421L36.3806 95.4975H36.2747V97.8676H35.2161L35.2073 92.264ZM36.2747 94.4579H36.61C36.954 94.4579 37.1922 94.4138 37.3157 94.3257C37.448 94.2376 37.5098 94.0878 37.5098 93.8852C37.5098 93.7618 37.4745 93.6561 37.4127 93.568C37.351 93.4799 37.2628 93.4094 37.1569 93.3742C37.051 93.3301 36.8481 93.3125 36.5659 93.3125H36.2659L36.2747 94.4579ZM47.0989 93.0305L46.305 93.7266C46.0227 93.3389 45.7492 93.1539 45.4581 93.1539C45.317 93.1539 45.2023 93.1891 45.1141 93.2596C45.0258 93.3389 44.9817 93.4182 44.9817 93.5151C44.9817 93.6032 45.017 93.7001 45.0788 93.7794C45.167 93.894 45.4228 94.1319 45.8639 94.5019C46.2697 94.8455 46.5167 95.057 46.6049 95.1451C46.8166 95.3653 46.9754 95.568 47.0637 95.7706C47.1519 95.9733 47.196 96.1847 47.196 96.4226C47.196 96.8808 47.0372 97.2596 46.7196 97.5592C46.402 97.8587 45.9874 98.0085 45.4757 98.0085C45.0788 98.0085 44.7347 97.9116 44.4348 97.7178C44.1437 97.5239 43.8878 97.2156 43.6761 96.8015L44.5759 96.264C44.8406 96.7574 45.1582 97.0041 45.5022 97.0041C45.6875 97.0041 45.8374 96.9512 45.9698 96.8455C46.0933 96.7398 46.155 96.6165 46.155 96.4755C46.155 96.3521 46.1109 96.22 46.0139 96.0966C45.9257 95.9733 45.7139 95.7794 45.3875 95.5151C44.7788 95.0217 44.3819 94.6341 44.2054 94.3697C44.029 94.0966 43.932 93.8323 43.932 93.5592C43.932 93.1715 44.0819 92.8367 44.373 92.5636C44.673 92.2816 45.0347 92.1495 45.4669 92.1495C45.7492 92.1495 46.0139 92.2112 46.2697 92.3433C46.5344 92.449 46.8078 92.6781 47.0989 93.0305ZM50.5218 92.264H51.5804V96.8455H53.1506V97.8587H50.5218V92.264ZM58.92 92.123C59.7139 92.123 60.3932 92.4138 60.9666 92.9865C61.54 93.5592 61.8223 94.2552 61.8223 95.0834C61.8223 95.9028 61.54 96.59 60.9754 97.1539C60.4197 97.7178 59.7316 97.9997 58.9288 97.9997C58.0907 97.9997 57.3938 97.709 56.8381 97.1275C56.2823 96.546 56 95.8587 56 95.057C56 94.5283 56.1323 94.0349 56.3882 93.5856C56.644 93.1363 57.0057 92.7838 57.4556 92.5195C57.9055 92.2552 58.3995 92.123 58.92 92.123ZM58.9023 93.1715C58.3819 93.1715 57.9496 93.3565 57.5967 93.709C57.2439 94.0702 57.0674 94.5283 57.0674 95.0834C57.0674 95.7001 57.288 96.1935 57.7291 96.546C58.0731 96.8279 58.4701 96.9689 58.9112 96.9689C59.414 96.9689 59.8463 96.7839 60.1991 96.4226C60.552 96.0614 60.7284 95.612 60.7284 95.0746C60.7284 94.5371 60.552 94.0878 60.1903 93.7266C59.8551 93.3565 59.414 93.1715 58.9023 93.1715ZM70.3264 93.1803L69.5766 93.9204C69.1002 93.4182 68.5444 93.1715 67.9181 93.1715C67.3712 93.1715 66.9036 93.3565 66.5331 93.7178C66.1626 94.079 65.9773 94.5283 65.9773 95.0482C65.9773 95.5856 66.1714 96.0438 66.5507 96.4226C66.9389 96.8015 67.4153 96.9865 67.9798 96.9865C68.3504 96.9865 68.6591 96.9072 68.915 96.7574C69.1708 96.5988 69.3737 96.3609 69.5236 96.035H67.9005V95.0394H70.7146L70.7234 95.2772C70.7234 95.7706 70.5911 96.2288 70.3441 96.6693C70.0971 97.1098 69.7618 97.4446 69.356 97.6737C68.9502 97.9028 68.4739 98.0173 67.9357 98.0173C67.3535 98.0173 66.833 97.894 66.3743 97.6385C65.9244 97.383 65.5627 97.0217 65.2892 96.5636C65.0246 96.0966 64.8923 95.5944 64.8923 95.0482C64.8923 94.3081 65.1393 93.6649 65.6245 93.1186C66.2067 92.4667 66.9654 92.1407 67.9005 92.1407C68.3856 92.1407 68.8444 92.2288 69.2678 92.4138C69.6295 92.546 69.9824 92.8103 70.3264 93.1803ZM75.7253 92.264H76.8015L78.954 97.8587H77.8425L77.4014 96.7046H75.1078L74.6579 97.8587H73.5463L75.7253 92.264ZM76.2634 93.753L75.5047 95.6825H77.0221L76.2634 93.753ZM82.1034 92.264H83.1179L85.5262 95.9468V92.264H86.5848V97.8587H85.5703L83.162 94.1847V97.8587H82.1034V92.264Z" fill="#67647A"/>
</g>
<defs>
<clipPath id="clip0_183_4731">
<rect width="98" height="98" fill="white"/>
</clipPath>
</defs>
</svg>
