<svg width="98" height="98" viewBox="0 0 98 98" fill="none" xmlns="http://www.w3.org/2000/svg">
<g opacity="0.58" clip-path="url(#clip0_183_4751)">
<path d="M39.7946 17.2481C40.7561 17.4071 41.409 18.3084 41.2502 19.2715C41.0914 20.2346 40.1916 20.8797 39.23 20.7295C38.2684 20.5704 37.2804 20.3672 36.2924 20.1198C35.3132 19.8724 34.3075 19.5808 33.2665 19.245C30.523 18.3437 28.0882 16.9741 26.1033 15.5604C22.4512 12.9802 20.1046 9.89646 19.9811 9.41932V9.40164C19.8664 8.96868 19.9105 8.61523 20.0781 8.22645C20.2281 7.89952 20.3692 7.7493 20.5545 7.58142C20.9515 7.23681 24.3037 6.04395 28.5381 6.04395C30.8582 6.04395 33.5224 6.34437 36.2571 7.24565C41.9294 9.11005 46.1991 11.5135 49.2161 14.3056C52.8948 17.6987 54.712 21.6484 54.9238 25.8632C55.1002 29.4065 54.1122 33.0999 52.1008 36.7669C51.8538 36.4134 51.6156 36.0512 51.3775 35.6889C50.8658 34.8848 50.3806 34.0365 49.9572 33.1529C51.0158 30.7142 51.5098 28.3108 51.4039 26.0222C51.2451 22.7352 49.7719 19.6161 46.8255 16.8858C44.1701 14.4294 40.3239 12.2822 35.1544 10.5857C32.799 9.81694 30.5142 9.55186 28.5293 9.55186C26.9149 9.55186 25.574 9.67556 24.6037 9.82577C25.4152 10.5768 26.615 11.5841 28.1323 12.6621C29.879 13.8992 31.9962 15.1009 34.3604 15.8696C35.3044 16.1789 36.2395 16.4528 37.1481 16.6737C38.0832 16.93 38.9742 17.1155 39.7946 17.2481ZM47.7429 42.9433C44.6818 46.4865 40.7032 49.9238 35.9483 53.0871C35.1367 53.6261 34.0517 53.4052 33.5135 52.5922C32.9754 51.7793 33.196 50.6837 34.0076 50.1447C38.7801 46.9637 42.6969 43.5265 45.5993 40.0185C46.2697 41.0259 46.9843 41.9978 47.7429 42.9433Z" fill="#67647A"/>
<path d="M48.9603 0C51.4833 0 53.5299 2.04996 53.5299 4.57707C53.5299 7.10418 51.4833 9.15415 48.9603 9.15415C46.4373 9.15415 44.3907 7.10418 44.3907 4.57707C44.3907 2.04996 46.4373 0 48.9603 0Z" fill="#67647A"/>
<path d="M58.6553 20.7294C57.6938 20.8885 56.794 20.2346 56.6352 19.2715C56.4852 18.3083 57.1292 17.4071 58.0907 17.248C58.92 17.1155 59.8022 16.9299 60.7461 16.6913C61.6547 16.4616 62.5898 16.1965 63.5337 15.8873C65.8891 15.1185 67.9887 13.9257 69.7354 12.6975C71.2086 11.6548 72.3819 10.6563 73.2023 9.86992C72.2054 9.71087 70.8822 9.56949 69.3207 9.57833C67.3447 9.57833 65.0775 9.84341 62.7398 10.6121C58.6024 11.9729 55.3031 13.6164 52.7889 15.4896C52.0832 14.606 51.3069 13.7578 50.4424 12.9714L50.3718 12.9007C53.23 10.7093 56.9704 8.80076 61.6459 7.26328C64.363 6.37084 67.0095 6.07042 69.3207 6.06158C73.3787 6.05274 76.5633 7.07773 77.1103 7.42233C77.9836 7.98784 78.4159 8.27059 77.8248 9.68436C77.6043 10.2322 75.2842 13.0951 71.7555 15.5868C69.7707 16.9918 67.3535 18.3525 64.6188 19.245C63.5778 19.5807 62.5722 19.8723 61.593 20.1197C60.6049 20.3671 59.6169 20.5704 58.6553 20.7294ZM47.8841 20.968C47.0372 22.585 46.5785 24.2904 46.4902 26.0399C46.3315 29.4241 47.5047 33.0469 49.8248 36.6962C52.7889 41.3351 57.5879 45.9652 63.8689 50.1535C64.6805 50.6925 64.9011 51.7881 64.363 52.5922C63.8248 53.4051 62.7398 53.626 61.9282 53.087C55.2502 48.6337 50.0983 43.6413 46.8608 38.5871C44.1437 34.3281 42.7675 29.9984 42.9704 25.8808C43.1027 23.1682 43.9055 20.5615 45.4405 18.1493L45.564 18.2642C46.4726 19.0859 47.2577 19.9872 47.8841 20.968Z" fill="#67647A"/>
<path d="M77.869 2.50098C83.3472 9.04849 86.6377 17.4869 86.6377 26.6852C86.6377 47.503 69.7883 64.3798 49.0044 64.3798C28.2206 64.3798 11.3712 47.503 11.3712 26.6852C11.3712 17.4781 14.6616 9.04849 20.1399 2.50098C15.7379 8.46531 13.1267 15.8434 13.1267 23.8312C13.1267 43.677 29.1909 59.7586 49.0044 59.7586C68.8179 59.7586 84.8822 43.6681 84.8822 23.8312C84.8734 15.8434 82.271 8.47415 77.869 2.50098Z" fill="#67647A"/>
<path d="M2.20542 73.7195H4.56963L7.55135 82.6615L10.5419 73.7195H12.8973L15.041 86.5406H12.6944L11.327 78.4467L8.61878 86.5406H6.46629L3.76686 78.4467L2.37303 86.5406H0L2.20542 73.7195ZM20.5721 73.7195H27.5589V76.114H22.9981V78.4202H27.5589V80.7795H22.9981V84.1548H27.5589V86.5494H20.5721V73.7195ZM33.3636 73.7195H36.2483C38.1096 73.7195 39.4946 73.9492 40.3945 74.4175C41.2943 74.877 42.0441 75.6281 42.6263 76.6707C43.2086 77.7134 43.4997 78.9239 43.4997 80.3112C43.4997 81.3008 43.3409 82.2021 43.0145 83.0327C42.6881 83.8632 42.2294 84.5436 41.656 85.0915C41.0825 85.6393 40.4562 86.0104 39.7858 86.2225C39.1153 86.4345 37.9508 86.5317 36.2924 86.5317H33.3636V73.7195ZM35.7895 76.0699V84.1548H36.9187C38.0302 84.1548 38.8418 84.0223 39.3447 83.766C39.8475 83.5098 40.2533 83.0768 40.5709 82.476C40.8885 81.8751 41.0561 81.1241 41.0561 80.2405C41.0561 78.8797 40.6767 77.8282 39.9181 77.0772C39.23 76.4056 38.1361 76.0699 36.6188 76.0699H35.7895ZM49.1808 73.7195H51.6068V86.5406H49.1808V73.7195ZM69.6383 75.9638L67.9269 77.5897C66.7624 76.3614 65.4657 75.7518 64.0101 75.7518C62.7839 75.7518 61.7517 76.167 60.9137 77.0065C60.0756 77.8371 59.661 78.8709 59.661 80.0991C59.661 80.9562 59.8462 81.7161 60.2168 82.37C60.5873 83.0327 61.1166 83.554 61.7958 83.9339C62.4751 84.3139 63.2338 84.4994 64.063 84.4994C64.7687 84.4994 65.4215 84.3669 66.0038 84.1018C66.586 83.8367 67.2388 83.3596 67.9357 82.6615L69.5854 84.3934C68.6415 85.3212 67.7505 85.9662 66.9036 86.3197C66.0655 86.6819 65.0951 86.8587 64.0189 86.8587C62.034 86.8587 60.402 86.2313 59.1317 84.9677C57.8614 83.7042 57.235 82.0872 57.235 80.1168C57.235 78.8355 57.5261 77.7045 58.0996 76.706C58.673 75.7076 59.5022 74.9123 60.5784 74.3115C61.6547 73.7106 62.8103 73.4014 64.0542 73.4014C65.1128 73.4014 66.1273 73.6223 67.1065 74.0729C68.0857 74.5147 68.9326 75.1421 69.6383 75.9638ZM79.2187 73.7195H81.6711L86.5936 86.5406H84.0618L83.0649 83.8986H77.8248L76.8015 86.5406H74.2697L79.2187 73.7195ZM80.4449 77.1213L78.707 81.5394H82.1739L80.4449 77.1213ZM92.0013 73.7195H94.4272V84.2167H98.0088V86.5406H92.0013V73.7195Z" fill="#67647A"/>
<path d="M11.4064 91.8865H12.5533L13.5854 93.9011L14.6263 91.8865H15.7643L14.1235 95.0675V97.4974H13.0561V95.0675L11.4064 91.8865ZM21.6043 91.7451C22.3982 91.7451 23.0775 92.0367 23.6509 92.611C24.2243 93.1854 24.5066 93.8834 24.5066 94.714C24.5066 95.5358 24.2243 96.225 23.6597 96.7905C23.0952 97.356 22.4159 97.6387 21.6131 97.6387C20.7751 97.6387 20.0693 97.3472 19.5224 96.764C18.9666 96.1808 18.6843 95.4916 18.6843 94.6875C18.6843 94.1485 18.8166 93.6537 19.0725 93.2031C19.3283 92.7524 19.69 92.399 20.1399 92.1339C20.5986 91.8776 21.0838 91.7451 21.6043 91.7451ZM21.5955 92.7966C21.075 92.7966 20.6427 92.9822 20.2899 93.3356C19.937 93.6979 19.7606 94.1573 19.7606 94.714C19.7606 95.3325 19.9811 95.8274 20.4222 96.1808C20.7662 96.4636 21.1632 96.6049 21.6043 96.6049C22.1071 96.6049 22.5394 96.4194 22.8923 96.0571C23.2451 95.6948 23.4216 95.2442 23.4216 94.7052C23.4216 94.175 23.2451 93.7155 22.8834 93.3533C22.5306 92.9822 22.0983 92.7966 21.5955 92.7966ZM27.7883 91.8865H28.8557V95.5181C28.8557 95.8274 28.8822 96.0483 28.9351 96.1808C28.988 96.3133 29.0851 96.4105 29.2086 96.4901C29.3321 96.5696 29.4909 96.6049 29.6585 96.6049C29.8437 96.6049 30.0113 96.5608 30.1437 96.4724C30.2848 96.384 30.373 96.278 30.426 96.1455C30.4789 96.0129 30.5054 95.7567 30.5054 95.3767V91.8777H31.5816V95.2265C31.5816 95.792 31.5551 96.1808 31.4934 96.4017C31.4316 96.6226 31.3081 96.8347 31.1317 97.0379C30.9553 97.2411 30.7435 97.3913 30.5142 97.4885C30.2848 97.5857 30.0113 97.6299 29.7026 97.6299C29.2968 97.6299 28.9439 97.5415 28.644 97.3471C28.3441 97.1616 28.1323 96.9319 28 96.6491C27.8677 96.3664 27.8059 95.898 27.8059 95.2265V91.8865H27.7883ZM35.2073 91.8865H36.3453C36.9628 91.8865 37.4039 91.9395 37.6686 92.0544C37.9332 92.1604 38.1449 92.346 38.3037 92.611C38.4625 92.8673 38.5419 93.1677 38.5419 93.5212C38.5419 93.8923 38.4537 94.2015 38.2773 94.4489C38.1008 94.6963 37.8362 94.8819 37.4833 95.0144L38.8066 97.5062H37.6421L36.3806 95.1293H36.2747V97.5062H35.2161V91.8865H35.2073ZM36.2747 94.0867H36.61C36.954 94.0867 37.1834 94.0425 37.3157 93.9541C37.4392 93.8658 37.5098 93.7155 37.5098 93.5035C37.5098 93.3798 37.4745 93.2737 37.4127 93.1854C37.351 93.097 37.2628 93.0263 37.1569 92.991C37.051 92.9468 36.8481 92.9291 36.5659 92.9291H36.2747V94.0867ZM47.0989 92.6464L46.3138 93.3444C46.0403 92.9557 45.758 92.7613 45.4669 92.7613C45.3258 92.7613 45.2111 92.7966 45.1229 92.8761C45.0347 92.9468 44.9906 93.0352 44.9906 93.1324C44.9906 93.2296 45.0258 93.3179 45.0876 93.3974C45.1758 93.5123 45.4316 93.7509 45.8727 94.122C46.2785 94.4666 46.5255 94.6787 46.6137 94.767C46.8343 94.9879 46.9843 95.1912 47.0725 95.3944C47.1607 95.5976 47.2048 95.8097 47.2048 96.0483C47.2048 96.5077 47.046 96.8877 46.7284 97.1881C46.4108 97.4885 45.9962 97.6387 45.4846 97.6387C45.0876 97.6387 44.7347 97.5415 44.4436 97.3471C44.1437 97.1528 43.8878 96.8435 43.6849 96.4282L44.5848 95.8892C44.8494 96.384 45.167 96.6314 45.5199 96.6314C45.7051 96.6314 45.8551 96.5784 45.9874 96.4724C46.1109 96.3664 46.1727 96.2426 46.1727 96.1013C46.1727 95.9776 46.1285 95.845 46.0315 95.7213C45.9433 95.5976 45.7316 95.4032 45.414 95.1381C44.7965 94.6433 44.4083 94.2545 44.2319 93.9895C44.0555 93.7155 43.9672 93.4505 43.9672 93.1854C43.9672 92.7966 44.1172 92.4608 44.4083 92.1869C44.6994 91.9042 45.07 91.7716 45.5022 91.7716C45.7757 91.7716 46.0492 91.8335 46.2962 91.966C46.5343 92.0721 46.8078 92.3018 47.0989 92.6464ZM50.5217 91.8865H51.5803V96.4812H53.1506V97.4974H50.5217V91.8865ZM58.92 91.7451C59.7139 91.7451 60.3932 92.0367 60.9666 92.611C61.54 93.1854 61.8223 93.8834 61.8223 94.714C61.8223 95.5358 61.54 96.225 60.9754 96.7905C60.4108 97.356 59.7316 97.6387 58.9288 97.6387C58.0907 97.6387 57.385 97.3472 56.8292 96.764C56.2735 96.1808 55.9912 95.4916 55.9912 94.6875C55.9912 94.1485 56.1235 93.6537 56.3793 93.2031C56.6352 92.7524 56.9969 92.399 57.4468 92.1339C57.9143 91.8776 58.3995 91.7451 58.92 91.7451ZM58.9023 92.7966C58.3819 92.7966 57.9496 92.9822 57.5967 93.3356C57.2439 93.6979 57.0674 94.1573 57.0674 94.714C57.0674 95.3325 57.288 95.8274 57.7379 96.1808C58.0819 96.4636 58.4789 96.6049 58.92 96.6049C59.4228 96.6049 59.8463 96.4194 60.2079 96.0571C60.5608 95.6948 60.7372 95.2442 60.7372 94.7052C60.7372 94.175 60.5608 93.7155 60.1991 93.3533C59.8463 92.9822 59.414 92.7966 58.9023 92.7966ZM70.3264 92.8054L69.5766 93.5477C69.1002 93.044 68.5444 92.7966 67.9181 92.7966C67.3711 92.7966 66.9036 92.9822 66.5331 93.3444C66.1626 93.7155 65.9773 94.1573 65.9773 94.6787C65.9773 95.2177 66.1714 95.6771 66.5596 96.0571C66.9477 96.437 67.4241 96.6226 67.9887 96.6226C68.3592 96.6226 68.6679 96.5431 68.9238 96.384C69.1796 96.225 69.3737 95.9864 69.5325 95.6595H67.9093V94.661H70.7234L70.7322 94.8996C70.7322 95.3944 70.5999 95.8539 70.3529 96.2957C70.097 96.7375 69.7706 97.0732 69.3648 97.303C68.959 97.5327 68.4915 97.6476 67.9446 97.6476C67.3623 97.6476 66.8418 97.5239 66.3919 97.2676C65.9332 97.0114 65.5715 96.6491 65.3069 96.1896C65.0422 95.7213 64.9099 95.2177 64.9099 94.6787C64.9099 93.9364 65.1569 93.2914 65.6421 92.7436C66.2243 92.0897 66.983 91.7628 67.9181 91.7628C68.4033 91.7628 68.862 91.8511 69.2855 92.0367C69.6295 92.1692 69.9824 92.4343 70.3264 92.8054ZM75.7253 91.8865H76.8015L78.954 97.4974H77.8513L77.419 96.3399H75.1254L74.6755 97.4974H73.564L75.7253 91.8865ZM76.2634 93.3798L75.5047 95.3149H77.0221L76.2634 93.3798ZM82.1033 91.8865H83.1178L85.5262 95.5799V91.8865H86.5936V97.4974H85.5703L83.1619 93.8127V97.4974H82.1033V91.8865Z" fill="#67647A"/>
</g>
<defs>
<clipPath id="clip0_183_4751">
<rect width="98" height="97.6384" fill="white"/>
</clipPath>
</defs>
</svg>
