<svg width="98" height="96" viewBox="0 0 98 96" fill="none" xmlns="http://www.w3.org/2000/svg">
<g opacity="0.58" clip-path="url(#clip0_183_4719)">
<path d="M49.2249 0C46.0491 0 43.4732 2.57977 43.4732 5.76031C43.4732 8.55212 45.4493 10.8757 48.0781 11.3969L49.0662 62.8775H49.3485L50.3629 11.3969C52.9918 10.8668 54.9678 8.54329 54.9678 5.75148C54.9678 2.57977 52.3919 0 49.2249 0Z" fill="#67647A"/>
<path d="M80.9565 15.8584C82.2621 19.4807 82.9855 23.3857 82.9855 27.4497C82.9855 44.4656 70.5205 58.566 54.2268 61.0751C54.3945 59.529 54.1651 58.0271 53.6093 56.5163C69.6207 54.2723 81.9357 40.5076 81.9357 23.8539C81.9357 21.1063 81.5917 18.4293 80.9565 15.8584ZM44.2848 61.1546C27.753 58.8575 15.0233 44.6423 15.0233 27.4497C15.0233 23.3768 15.7379 19.4718 17.0435 15.8584C16.4083 18.4205 16.0643 21.1063 16.0643 23.8628C16.0643 40.6755 28.6263 54.5461 44.867 56.587C44.8053 56.746 44.7524 56.9139 44.6994 57.0817C44.2672 58.46 44.1348 59.8117 44.2848 61.1546Z" fill="#67647A"/>
<path d="M50.2571 30.7804C51.3774 31.7699 52.1626 32.8213 52.3125 34.014C52.8242 38.0515 43.8437 40.8521 44.0202 47.3811C44.0819 49.6251 45.8727 52.1077 47.2401 53.751L47.4694 54.0249C47.8488 53.3976 48.2369 52.7792 48.5986 52.1784C47.1695 49.7135 46.2785 47.2397 48.4222 44.1387C50.5129 41.5677 54.1563 38.7406 55.5413 35.9665C56.1941 34.6501 56.2911 33.2895 55.4089 31.7787C54.9149 30.9218 54.1122 29.9323 52.9124 29.0576C52.1449 29.517 51.0687 30.1885 50.2571 30.7804ZM49.9395 57.2673C50.954 58.9017 51.6244 60.7305 51.3774 62.9834C52.4978 60.2888 51.9244 58.0712 50.8834 56.0215C50.5482 56.4279 50.2306 56.8432 49.9395 57.2673Z" fill="#67647A"/>
<path d="M85.0939 11.6976C75.7429 3.1631 42.0088 14.1536 41.1796 22.4672C41.0208 24.0487 42.7498 26.3634 44.5495 27.2822C45.5551 26.7168 46.3138 25.8951 47.3106 25.3209C37.6509 18.4209 66.9477 13.7649 70.8469 13.3408C62.1046 15.9913 59.2728 16.9101 56.5646 17.7317C67.574 29.1287 72.92 14.2155 85.0939 11.6976Z" fill="#67647A"/>
<path d="M51.845 42.3809C52.339 42.9551 52.7889 43.5559 53.1683 44.2362C57.5879 52.1964 46.1991 54.7673 47.1254 62.9925C43.8526 55.1384 55.0208 51.2599 50.0807 44.1302C50.3012 43.8916 50.5218 43.6707 50.7423 43.441C51.0952 43.0876 51.4657 42.7343 51.845 42.3809Z" fill="#67647A"/>
<path d="M53.6181 18.2354C55.7795 19.861 57.0498 21.6103 56.5999 23.3949C55.3031 28.5014 41.2854 31.4611 47.5753 38.1579C47.69 38.2816 47.8047 38.3964 47.9193 38.5113C47.3195 39.0767 46.7284 39.6245 46.1462 40.1899C43.2439 37.4688 40.8091 34.9244 42.6528 31.7703C44.3201 28.9078 51.0599 25.5064 52.6742 22.856C53.23 21.946 52.092 20.6826 50.5041 19.6136C51.5009 19.1188 52.5595 18.6594 53.6181 18.2354Z" fill="#67647A"/>
<path d="M12.9061 11.6971C18.9137 6.21063 36.063 9.16146 47.443 14.0913C46.799 14.4182 46.1638 14.7539 45.5463 15.1073C44.8494 15.5049 44.0202 16.0085 43.1733 16.5916C35.6572 14.3563 26.8267 13.2432 27.1531 13.3403C35.8954 15.9819 38.7272 16.9008 41.4354 17.7312C30.4348 29.1282 25.08 14.215 12.9061 11.6971Z" fill="#67647A"/>
<path d="M2.20542 71.1911H4.56963L7.55135 80.132L10.5419 71.1911H12.8973L15.041 84.0105H12.6944L11.327 75.9178L8.61878 84.0105H6.46629L3.76686 75.9178L2.37303 84.0105H0L2.20542 71.1911ZM20.5633 71.1911H27.5501V73.5854H22.9805V75.8913H27.5501V78.2502H22.9805V81.6251H27.5501V84.0193H20.5633V71.1911V71.1911ZM33.3636 71.1911H36.2483C38.1096 71.1911 39.4858 71.4209 40.3945 71.8891C41.2943 72.3485 42.0441 73.0995 42.6263 74.142C43.2086 75.1756 43.4997 76.3949 43.4997 77.7819C43.4997 78.7714 43.3409 79.6726 43.0145 80.503C42.6881 81.3335 42.2382 82.0226 41.656 82.5704C41.0825 83.1181 40.4562 83.4892 39.7858 83.7012C39.1153 83.9133 37.9508 84.0105 36.2924 84.0105H33.3636V71.1911ZM35.7895 73.55V81.6339H36.9187C38.0302 81.6339 38.8418 81.5102 39.3359 81.254C39.8387 80.9978 40.2533 80.5649 40.5621 79.9641C40.8796 79.3633 41.0384 78.6212 41.0384 77.7289C41.0384 76.3683 40.6591 75.317 39.9004 74.566C39.2212 73.8946 38.1185 73.55 36.61 73.55H35.7895V73.55ZM49.172 71.1911H51.6068V84.0105H49.1808V71.1911H49.172ZM69.6383 73.444L67.9269 75.0608C66.7624 73.8328 65.4568 73.2232 64.0101 73.2232C62.7839 73.2232 61.7517 73.6472 60.9137 74.4777C60.0756 75.317 59.6522 76.3418 59.6522 77.5699C59.6522 78.4269 59.8374 79.1866 60.2168 79.8404C60.5873 80.503 61.1166 81.0243 61.787 81.4042C62.4663 81.7841 63.2249 81.9696 64.0542 81.9696C64.7599 81.9696 65.4039 81.8371 65.995 81.572C66.586 81.307 67.23 80.8299 67.9269 80.132L69.5854 81.8636C68.6415 82.7912 67.7505 83.4362 66.9036 83.7896C66.0655 84.1518 65.104 84.3285 64.0189 84.3285C62.0252 84.3285 60.3932 83.7012 59.1317 82.4379C57.8614 81.1745 57.235 79.5577 57.235 77.5787C57.235 76.2977 57.5261 75.1668 58.0996 74.1685C58.673 73.1701 59.5022 72.375 60.5784 71.7742C61.6547 71.1735 62.8103 70.8643 64.0542 70.8643C65.1128 70.8643 66.1273 71.0851 67.1065 71.5357C68.0857 71.9863 68.9238 72.6224 69.6383 73.444ZM79.2098 71.1911H81.6623L86.5847 84.0105H84.0441L83.0561 81.3688H77.8072L76.7839 84.0105H74.2432L79.2098 71.1911ZM80.4449 74.5925L78.707 79.01H82.1651L80.4449 74.5925ZM92.0013 71.1911H94.4272V81.6869H98.0088V84.0105H92.0013V71.1911Z" fill="#67647A"/>
<path d="M11.4153 89.3552H12.5532L13.5942 91.3696L14.6352 89.3552H15.7732L14.1323 92.5358V94.9653H13.0561V92.5358L11.4153 89.3552ZM21.6043 89.2139C22.3982 89.2139 23.0775 89.5054 23.6509 90.0797C24.2243 90.6539 24.5066 91.3519 24.5066 92.1824C24.5066 93.004 24.2243 93.6931 23.6597 94.2585C23.0952 94.824 22.4159 95.1067 21.6131 95.1067C20.7751 95.1067 20.0781 94.8151 19.5224 94.232C18.9666 93.6489 18.6843 92.9598 18.6843 92.1559C18.6843 91.6169 18.8166 91.1222 19.0725 90.6716C19.3283 90.221 19.69 89.8676 20.1399 89.6026C20.5986 89.3464 21.0838 89.2139 21.6043 89.2139ZM21.5866 90.2652C21.0662 90.2652 20.6339 90.4507 20.281 90.8041C19.9282 91.1664 19.7517 91.6258 19.7517 92.1824C19.7517 92.8008 19.9723 93.2955 20.4134 93.6489C20.7574 93.9316 21.1544 94.073 21.5955 94.073C22.0983 94.073 22.5306 93.8875 22.8834 93.5252C23.2363 93.163 23.4127 92.7036 23.4127 92.1735C23.4127 91.6434 23.2363 91.1929 22.8746 90.8218C22.5306 90.4507 22.0983 90.2652 21.5866 90.2652ZM27.7883 89.3552H28.8557V92.9863C28.8557 93.2955 28.8822 93.5164 28.9351 93.6489C28.988 93.7815 29.0763 93.8786 29.2086 93.9582C29.3321 94.0377 29.4909 94.073 29.6585 94.073C29.8437 94.073 30.0114 94.0288 30.1437 93.9405C30.276 93.8521 30.373 93.7461 30.426 93.6136C30.4789 93.4811 30.5054 93.2249 30.5054 92.8538V89.3552H31.5816V92.7036C31.5816 93.269 31.5463 93.6578 31.4846 93.8786C31.4228 94.0995 31.2993 94.3115 31.1229 94.5147C30.9464 94.7179 30.7347 94.8681 30.5054 94.9653C30.276 95.0625 30.0025 95.1155 29.6938 95.1155C29.288 95.1155 28.9351 95.0183 28.6352 94.8328C28.3352 94.6473 28.1147 94.4087 27.9912 94.126C27.8589 93.8433 27.7971 93.3751 27.7971 92.7036V89.3552H27.7883ZM35.2073 89.3552H36.3453C36.9628 89.3552 37.4039 89.4082 37.6686 89.5231C37.9332 89.6291 38.1449 89.8146 38.3037 90.0708C38.4625 90.3271 38.5419 90.6363 38.5419 90.9808C38.5419 91.3431 38.4537 91.6611 38.2773 91.9085C38.1008 92.1559 37.8362 92.3414 37.4833 92.4739L38.8066 94.9653H37.6421L36.3806 92.5888H36.2747V94.9653H35.2161L35.2073 89.3552ZM36.2747 91.5551H36.61C36.954 91.5551 37.1922 91.5109 37.3157 91.4226C37.448 91.3342 37.5098 91.184 37.5098 90.9808C37.5098 90.8571 37.4745 90.7511 37.4127 90.6628C37.351 90.5744 37.2628 90.5037 37.1569 90.4684C37.051 90.4242 36.8481 90.4066 36.5659 90.4066H36.2659L36.2747 91.5551ZM47.0989 90.1238L46.305 90.8218C46.0227 90.4331 45.7492 90.2475 45.4581 90.2475C45.317 90.2475 45.2023 90.2829 45.1141 90.3624C45.0258 90.4419 44.9817 90.5214 44.9817 90.6186C44.9817 90.7158 45.017 90.8041 45.0788 90.8836C45.167 90.9985 45.4228 91.237 45.8639 91.5993C46.2697 91.9438 46.5167 92.1559 46.6049 92.2442C46.8166 92.4651 46.9754 92.6683 47.0637 92.8715C47.1519 93.0747 47.196 93.2867 47.196 93.5252C47.196 93.9847 47.0372 94.3646 46.7196 94.6649C46.402 94.9653 45.9874 95.1155 45.4757 95.1155C45.0788 95.1155 44.7347 95.0183 44.4348 94.824C44.1437 94.6296 43.8878 94.3204 43.6761 93.9051L44.5759 93.3662C44.8406 93.861 45.1582 94.1083 45.5022 94.1083C45.6875 94.1083 45.8374 94.0553 45.9698 93.9493C46.0933 93.8433 46.155 93.7196 46.155 93.5783C46.155 93.4546 46.1109 93.3221 46.0139 93.1984C45.9257 93.0747 45.7139 92.8803 45.3875 92.6153C44.7788 92.1205 44.3819 91.7318 44.2054 91.4667C44.029 91.1929 43.932 90.9278 43.932 90.6539C43.932 90.2652 44.0819 89.9295 44.373 89.6556C44.673 89.3729 45.0347 89.2404 45.4669 89.2404C45.7492 89.2404 46.0139 89.3022 46.2697 89.4347C46.5344 89.5408 46.8078 89.7793 47.0989 90.1238ZM50.5218 89.3552H51.5804V93.9493H53.1506V94.9653H50.5218V89.3552ZM58.92 89.2139C59.7139 89.2139 60.3932 89.5054 60.9666 90.0797C61.54 90.6539 61.8223 91.3519 61.8223 92.1824C61.8223 93.004 61.54 93.6931 60.9754 94.2585C60.4197 94.824 59.7316 95.1067 58.9288 95.1067C58.0907 95.1067 57.3938 94.8151 56.8381 94.232C56.2823 93.6489 56 92.9598 56 92.1559C56 91.6169 56.1323 91.1222 56.3882 90.6716C56.644 90.221 57.0057 89.8676 57.4556 89.6026C57.9055 89.3464 58.3995 89.2139 58.92 89.2139ZM58.9023 90.2652C58.3819 90.2652 57.9496 90.4507 57.5967 90.8041C57.2439 91.1664 57.0674 91.6258 57.0674 92.1824C57.0674 92.8008 57.288 93.2955 57.7291 93.6489C58.0731 93.9316 58.4701 94.073 58.9112 94.073C59.414 94.073 59.8463 93.8875 60.1991 93.5252C60.552 93.163 60.7284 92.7036 60.7284 92.1735C60.7284 91.6434 60.552 91.1929 60.1903 90.8218C59.8551 90.4507 59.414 90.2652 58.9023 90.2652ZM70.3264 90.274L69.5766 91.0162C69.1002 90.5126 68.5444 90.2652 67.9181 90.2652C67.3712 90.2652 66.9036 90.4507 66.5331 90.813C66.1626 91.184 65.9773 91.6258 65.9773 92.147C65.9773 92.6859 66.1714 93.1453 66.5507 93.5252C66.9389 93.9051 67.4153 94.0907 67.9798 94.0907C68.3504 94.0907 68.6591 94.0112 68.915 93.861C69.1708 93.7019 69.3737 93.4634 69.5236 93.1277H67.9005V92.1294H70.7146L70.7234 92.3679C70.7234 92.8538 70.5911 93.3221 70.3441 93.7638C70.0882 94.2055 69.7618 94.5412 69.356 94.7709C68.9502 95.0007 68.4739 95.1155 67.9357 95.1155C67.3535 95.1155 66.833 94.9918 66.3743 94.7356C65.9244 94.4794 65.5627 94.1172 65.2892 93.6578C65.0246 93.1895 64.8923 92.6859 64.8923 92.147C64.8923 91.4049 65.1393 90.76 65.6245 90.2122C66.2067 89.5584 66.9654 89.2315 67.9005 89.2315C68.3856 89.2315 68.8444 89.3199 69.2678 89.5054C69.6295 89.6379 69.9824 89.903 70.3264 90.274ZM75.7253 89.3552H76.8015L78.954 94.9653H77.8425L77.4014 93.808H75.1078L74.6579 94.9653H73.5463L75.7253 89.3552ZM76.2634 90.8483L75.5047 92.7831H77.0221L76.2634 90.8483ZM82.1034 89.3552H83.1179L85.5262 93.0482V89.3552H86.5848V94.9653H85.5703L83.162 91.2812V94.9653H82.1034V89.3552Z" fill="#67647A"/>
</g>
<defs>
<clipPath id="clip0_183_4719">
<rect width="98" height="95.107" fill="white"/>
</clipPath>
</defs>
</svg>
