<svg width="98" height="96" viewBox="0 0 98 96" fill="none" xmlns="http://www.w3.org/2000/svg">
<g opacity="0.58" clip-path="url(#clip0_183_4767)">
<path d="M46.9271 54.3564C46.5919 54.8231 46.2832 55.3162 46.0274 55.871C44.6689 58.7856 45.6833 62.7392 47.4652 64.694C46.9447 62.6424 46.0185 61.6033 46.6537 58.8913C46.9183 57.7642 47.4563 56.7427 48.1267 55.7829C47.9768 55.5892 47.8268 55.4043 47.6769 55.2282C47.4387 54.9376 47.1917 54.647 46.9271 54.3564Z" fill="#67647A"/>
<path d="M45.7275 34.6934C44.2544 36.0142 43.39 37.4407 43.6987 38.8936C43.9898 40.2584 45.4893 41.5528 46.3273 42.1604C49.5999 44.5907 53.0135 46.8625 49.838 50.9218C49.7586 51.0186 49.6792 51.1155 49.6087 51.2124C50.0144 51.6702 50.4202 52.1193 50.8083 52.5772C52.7842 50.3582 54.4337 48.289 53.1811 45.7178C52.0521 43.3843 46.9889 40.9628 46.3714 38.4621C46.1509 37.5903 46.7684 36.6922 47.8445 35.8205C47.1653 35.4066 46.442 35.0368 45.7275 34.6934Z" fill="#67647A"/>
<path d="M50.0056 31.8317C50.7642 32.2984 51.4875 32.8003 52.1491 33.3374C54.6983 32.1751 57.0359 31.2329 59.885 31.0128C62.1696 30.8367 66.1743 31.2594 68.3354 31.999C68.4589 32.043 68.5912 32.0871 68.7323 32.1399C68.6 32.2103 68.4765 32.2808 68.3707 32.3336C66.3419 33.3991 62.4342 34.1211 60.1408 34.2972C58.1473 34.4469 56.1449 34.0507 54.2132 33.5224C54.1426 33.5047 53.5516 33.6456 53.04 33.7513C54.2485 34.9488 54.6719 35.7677 54.8571 36.3401C56.5595 36.7628 58.3061 36.9741 60.3349 36.8244C66.8623 36.3225 74.1219 32.0166 74.1043 31.7525C74.0866 31.4883 66.2184 27.9837 59.6909 28.4856C56.4008 28.741 52.9518 30.2643 50.0056 31.8317Z" fill="#67647A"/>
<path d="M48.8677 0C49.2029 0 52.8106 6.9563 52.8106 15.5328C52.8106 24.1093 49.0441 31.048 48.8677 31.0656C48.6913 31.0832 44.9247 24.1181 44.9247 15.5328C44.9247 6.9563 48.5325 0 48.8677 0ZM48.8677 6.59528C48.0209 9.48346 47.5445 12.5301 47.5445 15.5328C47.5445 18.4826 48.0297 21.4677 48.8677 24.303C49.7057 21.4677 50.1908 18.4826 50.1908 15.5328C50.1908 12.5301 49.7145 9.48346 48.8677 6.59528Z" fill="#67647A"/>
<path d="M33.4753 46.3871C33.2989 46.2198 34.4985 42.2574 37.48 37.7754C38.2209 37.9515 38.8825 37.9955 39.6058 37.9603C38.3444 40.3026 37.5329 42.0901 37.6387 42.1869C37.7446 42.2926 39.8351 41.1479 42.5696 39.4044C42.7637 40.0824 43.143 40.734 43.6105 41.3152C38.5473 45.0751 33.6694 46.5808 33.4753 46.3871Z" fill="#67647A"/>
<path d="M23.8958 31.7525C23.9134 31.4883 31.4112 27.9837 37.9386 28.4856C41.1406 28.7322 44.1309 30.0266 46.9712 31.4619C50.9583 33.4783 54.5748 36.1464 53.9926 38.8937C53.7104 40.2409 52.2373 41.5177 51.3993 42.1429C51.0906 41.8875 50.7818 41.6498 50.5084 41.4208C50.2967 41.2535 50.0144 41.0246 49.7145 40.7692C50.5084 40.0032 51.1347 39.2371 51.3287 38.4622C51.7257 36.8596 49.3087 35.1514 46.3626 33.7249C43.6546 32.4129 40.7701 31.2505 37.7446 31.0128C35.46 30.8367 31.7993 31.2329 29.6294 31.9726C29.5059 32.0166 29.3736 32.0606 29.2412 32.1135C29.3736 32.1839 29.497 32.2544 29.6117 32.316C31.6317 33.3815 35.2042 34.1211 37.4976 34.306C39.1824 34.4293 40.8848 34.2268 42.5167 33.7953C42.8254 33.7161 43.7604 33.4255 44.0603 33.3286C44.2544 33.4343 44.5808 33.6368 44.7131 33.7513C43.6105 34.5438 42.7372 36.1816 42.5784 36.3929C40.9642 36.7627 39.1736 36.9741 37.3035 36.8244C30.7761 36.3313 23.8781 32.0166 23.8958 31.7525ZM48.0121 44.9078C46.4684 46.528 45.8598 48.3771 47.8621 50.9219C49.2205 52.6566 50.7554 53.9246 51.6639 55.8706C53.0135 58.7852 52.0079 62.7388 50.2261 64.6936C50.7466 62.6331 51.6727 61.6029 51.0376 58.8908C49.7674 53.4931 42.2168 50.464 44.519 45.7179C44.8542 45.0223 45.5422 44.3178 46.3537 43.6046C46.8654 43.9832 47.4564 44.4235 48.0121 44.9078Z" fill="#67647A"/>
<path d="M26.992 10.1347C27.186 9.94095 34.375 11.4115 39.7205 16.7388C45.0571 22.0749 46.3361 29.4362 46.3361 29.445C46.3361 29.445 38.9531 28.1682 33.6164 22.8409C28.2622 17.5136 26.7979 10.3372 26.992 10.1347ZM42.3403 25.4473C41.2818 22.929 39.7999 20.5251 37.8681 18.5879C35.9451 16.6771 33.59 15.1626 31.1113 14.0707C31.0143 14.0267 30.9084 13.9826 30.7938 13.9386C30.8379 14.0531 30.8908 14.1588 30.9349 14.2556C32.0287 16.7299 33.537 19.081 35.46 21.0006C37.3918 22.929 39.8087 24.3995 42.3403 25.4473Z" fill="#67647A"/>
<path d="M58.0062 16.7388C52.6695 22.0749 51.3905 29.445 51.3905 29.445C51.3905 29.445 58.7736 28.1682 64.1102 22.8409C69.4468 17.5048 70.9199 10.3284 70.7259 10.1347C70.5406 9.94095 63.3516 11.4115 58.0062 16.7388ZM62.2666 20.9918C60.326 22.929 57.9179 24.3995 55.3952 25.4561C56.4537 22.929 57.9179 20.5251 59.8585 18.5879C61.7815 16.6683 64.1367 15.1626 66.6153 14.0707C66.7124 14.0267 66.8182 13.9826 66.9329 13.9386C66.8888 14.0531 66.8447 14.1499 66.8006 14.2556C65.698 16.7211 64.1896 19.081 62.2666 20.9918Z" fill="#67647A"/>
<path d="M64.1367 46.3871C64.3131 46.2198 63.1135 42.2574 60.132 37.7754C59.3911 37.9515 58.7295 37.9955 58.0062 37.9603C59.2676 40.3026 60.0703 42.0901 59.9644 42.1869C59.8497 42.2926 57.768 41.1479 55.0335 39.4044C54.8395 40.0824 54.469 40.734 53.9927 41.3152C59.0647 45.0751 63.9426 46.5808 64.1367 46.3871Z" fill="#67647A"/>
<path d="M2.20522 71.6324H4.56922L7.55068 80.5435L10.541 71.6324H12.8961L15.0396 84.4091H12.6932L11.326 76.3433L8.618 84.4091H6.46571L3.77534 76.3433L2.38164 84.4091H0L2.20522 71.6324ZM20.5703 71.6324H27.5564V74.0187H22.9872V76.3169H27.5564V78.668H22.9872V82.0316H27.5564V84.4179H20.5703V71.6324ZM33.3606 71.6324H36.245C38.1062 71.6324 39.4911 71.8613 40.3908 72.3192C41.2906 72.7771 42.0403 73.5256 42.6225 74.5646C43.2047 75.5949 43.4958 76.81 43.4958 78.1925C43.4958 79.1787 43.337 80.0768 43.0106 80.9045C42.6842 81.7322 42.2344 82.4103 41.6522 82.9562C41.0788 83.4933 40.4526 83.8808 39.7822 84.0833C39.1118 84.2946 37.9474 84.3915 36.2891 84.3915H33.3606V71.6324ZM35.7863 73.9835V82.0492H36.9154C38.0356 82.0492 38.8383 81.926 39.3411 81.6618C39.8439 81.4064 40.2497 80.975 40.5761 80.3762C40.8936 79.7774 41.0524 79.029 41.0524 78.1484C41.0524 76.7924 40.6731 75.7446 39.9145 74.9961C39.2353 74.3269 38.1327 73.9923 36.6155 73.9923L35.7863 73.9835ZM49.1764 71.6324H51.6022V84.4091H49.1764V71.6324ZM69.632 73.8778L67.9208 75.498C66.7564 74.274 65.4509 73.6665 64.0043 73.6665C62.7782 73.6665 61.7462 74.0803 60.9082 74.9168C60.0702 75.7534 59.6468 76.7748 59.6468 77.9987C59.6468 78.8441 59.832 79.6101 60.2113 80.2617C60.5818 80.9221 61.1111 81.4417 61.7815 81.8203C62.4607 82.1989 63.2193 82.3838 64.0484 82.3838C64.7541 82.3838 65.4068 82.2518 65.989 81.9876C66.58 81.7234 67.2239 81.2479 67.9296 80.5523L69.5791 82.2782C68.6353 83.2028 67.7444 83.8456 66.8976 84.1978C66.0596 84.5588 65.0893 84.7349 64.0131 84.7349C62.0196 84.7349 60.3966 84.1097 59.1264 82.8505C57.8562 81.5914 57.2299 79.98 57.2299 78.0164C57.2299 76.7396 57.521 75.6125 58.0943 74.6175C58.6677 73.6224 59.4969 72.8299 60.573 72.2312C61.6403 71.6324 62.8047 71.3242 64.0484 71.3242C65.1069 71.3242 66.1213 71.5444 67.1005 71.9934C68.0796 72.4249 68.9264 73.0589 69.632 73.8778ZM79.2027 71.6324H81.6549L86.577 84.4091H84.0454L83.0486 81.7763H77.8002L76.777 84.4091H74.2454L79.2027 71.6324ZM80.4376 75.0313L78.6999 79.4252H82.1577L80.4376 75.0313ZM91.993 71.6324H94.4187V82.0933H98V84.4091H91.993V71.6324Z" fill="#67647A"/>
<path d="M11.4142 89.7454H12.5521L13.593 91.753L14.6339 89.7454H15.7718L14.1311 92.9153V95.3368H13.0549V92.9153L11.4142 89.7454ZM21.6024 89.6045C22.3962 89.6045 23.0754 89.8951 23.6488 90.4674C24.2133 91.0398 24.4956 91.7354 24.4956 92.5631C24.4956 93.382 24.2222 94.0688 23.6576 94.6324C23.0931 95.1959 22.4139 95.4777 21.6112 95.4777C20.7732 95.4777 20.0675 95.1871 19.5118 94.606C18.9561 94.0248 18.6738 93.338 18.6738 92.5367C18.6738 92.0084 18.8061 91.5153 19.0619 91.0662C19.3178 90.6171 19.6794 90.2649 20.1293 90.0007C20.5968 89.7278 21.0819 89.6045 21.6024 89.6045ZM21.5847 90.6435C21.0731 90.6435 20.6409 90.8196 20.2792 91.1807C19.9264 91.5417 19.75 91.9996 19.75 92.5543C19.75 93.1707 19.9705 93.6638 20.4115 94.016C20.7556 94.2978 21.1525 94.4387 21.5935 94.4387C22.0963 94.4387 22.5286 94.2538 22.8814 93.8927C23.2342 93.5317 23.4106 93.0826 23.4106 92.5455C23.4106 92.0084 23.2342 91.5593 22.8726 91.1983C22.5374 90.8284 22.0963 90.6435 21.5847 90.6435ZM27.7858 89.7454H28.8619V93.3644C28.8619 93.6726 28.8884 93.8927 28.9413 94.0248C28.9943 94.1569 29.0913 94.2538 29.2148 94.333C29.3383 94.4123 29.4882 94.4475 29.6735 94.4475C29.8587 94.4475 30.0263 94.4034 30.1586 94.3154C30.2909 94.2273 30.388 94.1217 30.4409 93.9896C30.4938 93.8575 30.5203 93.6021 30.5203 93.2235V89.7454H31.5788V93.0826C31.5788 93.6462 31.5435 94.0336 31.4817 94.2538C31.42 94.4739 31.2965 94.6852 31.1201 94.8877C30.9437 95.0903 30.732 95.24 30.5026 95.3368C30.2645 95.4337 29.991 95.4865 29.6823 95.4865C29.2765 95.4865 28.9237 95.3896 28.6238 95.2047C28.3239 95.0198 28.1122 94.7909 27.9799 94.5091C27.8564 94.2273 27.7858 93.7606 27.7858 93.0914V89.7454ZM35.2042 89.7454H36.3421C36.9595 89.7454 37.4006 89.7982 37.6652 89.9127C37.9298 90.0183 38.1415 90.2033 38.3003 90.4586C38.4591 90.714 38.5385 91.0134 38.5385 91.3656C38.5385 91.7354 38.4502 92.0436 38.2738 92.2901C38.0974 92.5367 37.8328 92.7216 37.4799 92.8537L38.8031 95.3368H37.6387L36.3773 92.9682H36.2715V95.3368H35.213V89.7454H35.2042ZM36.2715 91.9291H36.6155C36.9595 91.9291 37.1889 91.8851 37.3212 91.797C37.4535 91.709 37.5152 91.5593 37.5152 91.3568C37.5152 91.2335 37.4799 91.1278 37.4182 91.0398C37.3565 90.9517 37.2682 90.8813 37.1624 90.8461C37.0565 90.802 36.8537 90.7844 36.5714 90.7844H36.2803V91.9291H36.2715ZM47.0947 90.5027L46.3008 91.1983C46.0274 90.8108 45.7451 90.6259 45.454 90.6259C45.3129 90.6259 45.1982 90.6611 45.11 90.7404C45.0218 90.8196 44.9777 90.8989 44.9777 90.9958C44.9777 91.0838 45.013 91.1807 45.0747 91.2599C45.1629 91.3744 45.4187 91.6121 45.8598 91.982C46.2655 92.3254 46.5125 92.5367 46.6007 92.6248C46.8213 92.8449 46.9712 93.0474 47.0594 93.2499C47.1476 93.4525 47.2006 93.6638 47.2006 93.9015C47.2006 94.3594 47.0418 94.7381 46.7242 95.0374C46.4067 95.3368 45.9921 95.4865 45.4805 95.4865C45.0835 95.4865 44.7307 95.3896 44.4308 95.1959C44.1397 95.0022 43.8839 94.694 43.6722 94.2802L44.5719 93.7342C44.8454 94.2273 45.1541 94.4739 45.507 94.4739C45.6834 94.4739 45.8421 94.4211 45.9656 94.3154C46.0891 94.2097 46.1509 94.0865 46.1509 93.9456C46.1509 93.8223 46.1068 93.6902 46.0097 93.5669C45.9215 93.4437 45.7098 93.2499 45.3835 92.9858C44.7748 92.4927 44.3779 92.1052 44.2015 91.8323C44.025 91.5593 43.9368 91.2951 43.9368 91.031C43.9368 90.6435 44.0868 90.3089 44.3779 90.036C44.6778 89.7542 45.0394 89.6221 45.4805 89.6221C45.7539 89.6221 46.0274 89.6925 46.2744 89.8158C46.5302 89.9215 46.8036 90.1592 47.0947 90.5027ZM50.526 89.7454H51.5845V94.3242H53.1546V95.3368H50.526V89.7454ZM58.9147 89.6045C59.7086 89.6045 60.3878 89.8951 60.9611 90.4674C61.5345 91.0398 61.8168 91.7354 61.8168 92.5631C61.8168 93.382 61.5345 94.0688 60.97 94.6324C60.4054 95.1959 59.7262 95.4777 58.9235 95.4777C58.0855 95.4777 57.3799 95.1871 56.833 94.606C56.2772 94.0248 55.995 93.338 55.995 92.5367C55.995 92.0084 56.1185 91.5153 56.3831 91.0662C56.6389 90.6171 57.0006 90.2649 57.4504 90.0007C57.9091 89.7278 58.3943 89.6045 58.9147 89.6045ZM58.9059 90.6435C58.3854 90.6435 57.9532 90.8196 57.6004 91.1807C57.2564 91.5417 57.0799 91.9996 57.0799 92.5543C57.0799 93.1707 57.3005 93.6638 57.7415 94.016C58.0855 94.2978 58.4825 94.4387 58.9235 94.4387C59.4263 94.4387 59.8585 94.2538 60.2113 93.8927C60.5642 93.5317 60.7406 93.0826 60.7406 92.5455C60.7406 92.0084 60.5642 91.5593 60.2025 91.1983C59.8497 90.8284 59.4087 90.6435 58.9059 90.6435ZM70.3201 90.6523L69.5703 91.392C69.094 90.8901 68.5383 90.6435 67.912 90.6435C67.3651 90.6435 66.8976 90.8284 66.5271 91.1895C66.1566 91.5505 65.9626 91.9996 65.9626 92.5191C65.9626 93.0562 66.1566 93.5141 66.5447 93.8927C66.924 94.2714 67.4092 94.4563 67.9737 94.4563C68.3442 94.4563 68.6529 94.377 68.8999 94.2273C69.1557 94.0688 69.3586 93.8311 69.5174 93.4965H67.8943V92.5015H70.7082L70.717 92.7392C70.717 93.2235 70.5847 93.6902 70.3377 94.1305C70.0819 94.5707 69.7556 94.9054 69.3498 95.1343C68.944 95.3632 68.4677 95.4777 67.9296 95.4777C67.3563 95.4777 66.827 95.3544 66.3771 95.0991C65.9185 94.8437 65.5568 94.4827 65.2922 94.016C65.0276 93.5493 64.8952 93.0474 64.8952 92.5103C64.8952 91.7706 65.1422 91.1278 65.6274 90.5819C66.2096 89.9303 66.9682 89.6045 67.9032 89.6045C68.3883 89.6045 68.847 89.6925 69.2704 89.8775C69.6232 90.0183 69.9761 90.2825 70.3201 90.6523ZM75.7185 89.7454H76.7858L78.9469 95.3368H77.8443L77.4033 94.1833H75.1098L74.66 95.3368H73.5485L75.7185 89.7454ZM76.2565 91.2247L75.4979 93.1531H77.0063L76.2565 91.2247ZM82.096 89.7454H83.1104L85.5185 93.426V89.7454H86.577V95.3368H85.5626L83.1545 91.665V95.3368H82.096V89.7454Z" fill="#67647A"/>
</g>
<defs>
<clipPath id="clip0_183_4767">
<rect width="98" height="95.4686" fill="white"/>
</clipPath>
</defs>
</svg>
